<svg preserveAspectRatio="none" width="100%" height="100%" overflow="visible" style="display: block;" viewBox="0 0 20 20" fill="none" xmlns="http://www.w3.org/2000/svg">
<path id="vector" d="M5.80424 13.6958C3.76994 11.6575 2.20548 9.19944 1.22028 6.49348C0.678268 5.01405 1.17488 3.38895 2.28918 2.27465L2.97876 1.58601C3.16415 1.40025 3.38436 1.25287 3.62677 1.15231C3.86919 1.05176 4.12906 1 4.3915 1C4.65395 1 4.91381 1.05176 5.15623 1.15231C5.39865 1.25287 5.61885 1.40025 5.80424 1.58601L7.41894 3.20071C7.6047 3.3861 7.75208 3.6063 7.85264 3.84872C7.95319 4.09114 8.00495 4.351 8.00495 4.61345C8.00495 4.87589 7.95319 5.13576 7.85264 5.37818C7.75208 5.62059 7.6047 5.8408 7.41894 6.02619L7.02165 6.42348C6.86263 6.58247 6.73648 6.77123 6.65041 6.97898C6.56435 7.18673 6.52005 7.40939 6.52005 7.63426C6.52005 7.85913 6.56435 8.0818 6.65041 8.28955C6.73648 8.4973 6.86263 8.68606 7.02165 8.84505L10.654 12.4784C10.813 12.6374 11.0018 12.7635 11.2095 12.8496C11.4173 12.9357 11.6399 12.98 11.8648 12.98C12.0897 12.98 12.3123 12.9357 12.5201 12.8496C12.7278 12.7635 12.9166 12.6374 13.0756 12.4784L13.4738 12.0811C13.6592 11.8953 13.8794 11.7479 14.1218 11.6474C14.3642 11.5468 14.6241 11.4951 14.8866 11.4951C15.149 11.4951 15.4089 11.5468 15.6513 11.6474C15.8937 11.7479 16.1139 11.8953 16.2993 12.0811L17.914 13.6958C18.0998 13.8811 18.2471 14.1014 18.3477 14.3438C18.4482 14.5862 18.5 14.8461 18.5 15.1085C18.5 15.3709 18.4482 15.6308 18.3477 15.8732C18.2471 16.1156 18.0998 16.3359 17.914 16.5212L17.2254 17.2099C16.1111 18.3251 14.486 18.8217 13.0065 18.2797C10.3006 17.2945 7.84249 15.7301 5.80424 13.6958Z" fill="var(--fill-0, #E0E0E0)" stroke="var(--stroke-1, #E0E0E0)" stroke-width="1.25" stroke-linejoin="round"/>
</svg>
