<svg width="33" height="32" viewBox="0 0 33 32" fill="none" xmlns="http://www.w3.org/2000/svg">
<rect x="0.855469" y="0.5" width="31" height="31" rx="15.5" stroke="#FFFFFF"/>
<path d="M13.1989 19.1566C11.5714 17.526 10.3199 15.5596 9.5317 13.3948C9.09808 12.2112 9.49537 10.9112 10.3868 10.0197L10.9385 9.46881C11.0868 9.3202 11.263 9.2023 11.4569 9.12185C11.6508 9.04141 11.8587 9 12.0687 9C12.2786 9 12.4865 9.04141 12.6805 9.12185C12.8744 9.2023 13.0506 9.3202 13.1989 9.46881L14.4906 10.7606C14.6392 10.9089 14.7571 11.085 14.8376 11.279C14.918 11.4729 14.9594 11.6808 14.9594 11.8908C14.9594 12.1007 14.918 12.3086 14.8376 12.5025C14.7571 12.6965 14.6392 12.8726 14.4906 13.021L14.1728 13.3388C14.0456 13.466 13.9447 13.617 13.8758 13.7832C13.8069 13.9494 13.7715 14.1275 13.7715 14.3074C13.7715 14.4873 13.8069 14.6654 13.8758 14.8316C13.9447 14.9978 14.0456 15.1488 14.1728 15.276L17.0787 18.1827C17.2059 18.3099 17.3569 18.4108 17.5231 18.4797C17.6893 18.5485 17.8674 18.584 18.0473 18.584C18.2272 18.584 18.4053 18.5485 18.5715 18.4797C18.7377 18.4108 18.8887 18.3099 19.0159 18.1827L19.3345 17.8649C19.4828 17.7162 19.659 17.5983 19.8529 17.5179C20.0469 17.4374 20.2548 17.396 20.4647 17.396C20.6747 17.396 20.8826 17.4374 21.0765 17.5179C21.2704 17.5983 21.4466 17.7162 21.5949 17.8649L22.8867 19.1566C23.0353 19.3049 23.1532 19.4811 23.2336 19.675C23.3141 19.8689 23.3555 20.0768 23.3555 20.2868C23.3555 20.4968 23.3141 20.7047 23.2336 20.8986C23.1532 21.0925 23.0353 21.2687 22.8867 21.417L22.3358 21.9679C21.4443 22.8601 20.1442 23.2574 18.9607 22.8238C16.7959 22.0356 14.8295 20.784 13.1989 19.1566Z" fill="#FFFFFF" stroke="#FFFFFF" stroke-linejoin="round"/>
</svg>
