<svg preserveAspectRatio="none" width="100%" height="100%" overflow="visible" style="display: block;" viewBox="0 0 20 20" fill="none" xmlns="http://www.w3.org/2000/svg">
<path id="vector" d="M9.99955 6.67113C8.15678 6.67113 6.67113 8.17106 6.67113 9.99955C6.67113 11.828 8.17106 13.328 9.99955 13.328C11.828 13.328 13.328 11.828 13.328 9.99955C13.328 8.17106 11.828 6.67113 9.99955 6.67113ZM19.9991 9.99955C19.9991 8.6139 19.9991 7.25682 19.9277 5.87117C19.8563 4.27124 19.4848 2.84273 18.3135 1.68564C17.1421 0.514263 15.7279 0.142851 14.1279 0.0714253C12.7423 -6.91809e-08 11.3852 0 9.99955 0C8.6139 0 7.25682 -6.91809e-08 5.87117 0.0714253C4.27124 0.142851 2.84273 0.514263 1.68564 1.68564C0.514263 2.85702 0.142851 4.27124 0.0714253 5.87117C-6.91809e-08 7.25682 0 8.6139 0 9.99955C0 11.3852 -6.91809e-08 12.7423 0.0714253 14.1279C0.142851 15.7279 0.514263 17.1564 1.68564 18.3135C2.85702 19.4848 4.27124 19.8563 5.87117 19.9277C7.25682 19.9991 8.6139 19.9991 9.99955 19.9991C11.3852 19.9991 12.7423 19.9991 14.1279 19.9277C15.7279 19.8563 17.1564 19.4848 18.3135 18.3135C19.4848 17.1421 19.8563 15.7279 19.9277 14.1279C20.0134 12.7566 19.9991 11.3852 19.9991 9.99955ZM9.99955 15.1279C7.15682 15.1279 4.87121 12.8423 4.87121 9.99955C4.87121 7.15682 7.15682 4.87121 9.99955 4.87121C12.8423 4.87121 15.1279 7.15682 15.1279 9.99955C15.1279 12.8423 12.8423 15.1279 9.99955 15.1279ZM15.3422 5.85688C14.6851 5.85688 14.1422 5.32833 14.1422 4.65694C14.1422 3.98554 14.6708 3.45699 15.3422 3.45699C16.0136 3.45699 16.5421 3.98554 16.5421 4.65694C16.5457 4.81341 16.5172 4.96896 16.4582 5.11394C16.3992 5.25892 16.3111 5.39024 16.1993 5.49975C16.0898 5.61157 15.9584 5.6997 15.8135 5.75867C15.6685 5.81765 15.5129 5.84621 15.3565 5.8426L15.3422 5.85688Z" fill="var(--fill-0, #E0E0E0)"/>
</svg>
