<svg width="33" height="32" viewBox="0 0 33 32" fill="none" xmlns="http://www.w3.org/2000/svg">
<rect x="0.855469" y="0.5" width="31" height="31" rx="15.5" stroke="#111111"/>
<path d="M16.3551 13.3369C14.8809 13.3369 13.6924 14.5369 13.6924 15.9996C13.6924 17.4624 14.8923 18.6624 16.3551 18.6624C17.8179 18.6624 19.0178 17.4624 19.0178 15.9996C19.0178 14.5369 17.8179 13.3369 16.3551 13.3369ZM24.3548 15.9996C24.3548 14.8911 24.3548 13.8055 24.2976 12.6969C24.2405 11.417 23.9433 10.2742 23.0062 9.34851C22.0691 8.41141 20.9378 8.11428 19.6578 8.05714C18.5493 8 17.4636 8 16.3551 8C15.2466 8 14.1609 8 13.0524 8.05714C11.7725 8.11428 10.6297 8.41141 9.70398 9.34851C8.76688 10.2856 8.46975 11.417 8.41261 12.6969C8.35547 13.8055 8.35547 14.8911 8.35547 15.9996C8.35547 17.1082 8.35547 18.1938 8.41261 19.3024C8.46975 20.5823 8.76688 21.7251 9.70398 22.6508C10.6411 23.5879 11.7725 23.885 13.0524 23.9421C14.1609 23.9993 15.2466 23.9993 16.3551 23.9993C17.4636 23.9993 18.5493 23.9993 19.6578 23.9421C20.9378 23.885 22.0806 23.5879 23.0062 22.6508C23.9433 21.7137 24.2405 20.5823 24.2976 19.3024C24.3662 18.2053 24.3548 17.1082 24.3548 15.9996ZM16.3551 20.1023C14.0809 20.1023 12.2524 18.2738 12.2524 15.9996C12.2524 13.7255 14.0809 11.897 16.3551 11.897C18.6293 11.897 20.4578 13.7255 20.4578 15.9996C20.4578 18.2738 18.6293 20.1023 16.3551 20.1023ZM20.6292 12.6855C20.1035 12.6855 19.6692 12.2627 19.6692 11.7255C19.6692 11.1884 20.0921 10.7656 20.6292 10.7656C21.1663 10.7656 21.5892 11.1884 21.5892 11.7255C21.5921 11.8507 21.5692 11.9752 21.522 12.0911C21.4748 12.2071 21.4043 12.3122 21.3149 12.3998C21.2273 12.4893 21.1222 12.5598 21.0062 12.6069C20.8903 12.6541 20.7658 12.677 20.6406 12.6741L20.6292 12.6855Z" fill="#111111"/>
</svg>
