<svg width="16" height="16" viewBox="0 0 16 16" fill="none" xmlns="http://www.w3.org/2000/svg">
<path d="M0.554688 7.55469C0.554688 4.25511 0.554688 2.60458 1.57963 1.57963C2.60458 0.554688 4.25437 0.554688 7.55469 0.554688C10.8543 0.554688 12.5048 0.554688 13.5297 1.57963C14.5547 2.60458 14.5547 4.25437 14.5547 7.55469C14.5547 10.8543 14.5547 12.5048 13.5297 13.5297C12.5048 14.5547 10.855 14.5547 7.55469 14.5547C4.25511 14.5547 2.60458 14.5547 1.57963 13.5297C0.554688 12.5048 0.554688 10.855 0.554688 7.55469Z" stroke="#FEFEFE" stroke-width="1.10526" stroke-linejoin="round"/>
<path d="M10.8738 7.55798C10.8738 8.43738 10.5244 9.28076 9.90259 9.90259C9.28076 10.5244 8.43738 10.8738 7.55798 10.8738C6.67857 10.8738 5.83519 10.5244 5.21336 9.90259C4.59153 9.28076 4.24219 8.43738 4.24219 7.55798C4.24219 6.67857 4.59153 5.83519 5.21336 5.21336C5.83519 4.59153 6.67857 4.24219 7.55798 4.24219C8.43738 4.24219 9.28076 4.59153 9.90259 5.21336C10.5244 5.83519 10.8738 6.67857 10.8738 7.55798Z" stroke="#FEFEFE" stroke-width="1.10526"/>
<path d="M11.609 3.50781H11.6016" stroke="#FEFEFE" stroke-width="1.47368" stroke-linecap="round" stroke-linejoin="round"/>
</svg>
