<svg width="33" height="32" viewBox="0 0 33 32" fill="none" xmlns="http://www.w3.org/2000/svg">
<rect x="0.855469" y="0.5" width="31" height="31" rx="15.5" stroke="#111111"/>
<path fill-rule="evenodd" clip-rule="evenodd" d="M16.3545 12.1309C17.3803 12.1309 18.3644 12.5384 19.0898 13.2637C19.8152 13.9891 20.2235 14.9732 20.2236 15.999C20.2236 17.025 19.8153 18.0089 19.0898 18.7344C18.3644 19.4598 17.3805 19.8682 16.3545 19.8682C15.3287 19.8681 14.3445 19.4598 13.6191 18.7344C12.8939 18.0089 12.4863 17.0248 12.4863 15.999C12.4864 14.9732 12.8938 13.9891 13.6191 13.2637C14.3445 12.5383 15.3287 12.131 16.3545 12.1309ZM16.3545 13.2363C15.6218 13.2364 14.9195 13.5278 14.4014 14.0459C13.8833 14.564 13.5919 15.2663 13.5918 15.999C13.5918 16.7319 13.8832 17.4349 14.4014 17.9531C14.9195 18.4712 15.6218 18.7626 16.3545 18.7627C17.0873 18.7627 17.7904 18.4713 18.3086 17.9531C18.8268 17.4349 19.1182 16.7319 19.1182 15.999C19.1181 15.2664 18.8266 14.564 18.3086 14.0459C17.7904 13.5277 17.0873 13.2363 16.3545 13.2363Z" fill="black"/>
<path d="M20.4141 11.21C20.8208 11.2102 21.1504 11.5404 21.1504 11.9473C21.1504 12.3541 20.8208 12.6844 20.4141 12.6846H20.4063C19.9993 12.6846 19.6689 12.3542 19.6689 11.9473C19.6689 11.5403 19.9993 11.21 20.4063 11.21H20.4141Z" fill="black"/>
<path fill-rule="evenodd" clip-rule="evenodd" d="M16.3555 8.44531C17.9896 8.44531 19.271 8.44392 20.2695 8.57813C21.284 8.71447 22.0894 8.99953 22.7217 9.63184C23.354 10.2641 23.639 11.0696 23.7754 12.084C23.9096 13.0824 23.9082 14.3637 23.9082 15.998C23.9082 17.6322 23.9096 18.9136 23.7754 19.9121C23.639 20.9265 23.354 21.732 22.7217 22.3643C22.0894 22.9965 21.2839 23.2816 20.2695 23.418C19.2711 23.5521 17.9898 23.5508 16.3555 23.5508C14.7214 23.5508 13.44 23.5522 12.4414 23.418C11.427 23.2816 10.6216 22.9966 9.98926 22.3643C9.35698 21.732 9.0719 20.9265 8.93555 19.9121C8.80138 18.9137 8.80273 17.6324 8.80273 15.998C8.80273 14.3639 8.80135 13.0825 8.93555 12.084C9.07189 11.0696 9.35695 10.2641 9.98926 9.63184C10.6215 8.99956 11.427 8.71448 12.4414 8.57813C13.4398 8.44396 14.7211 8.44531 16.3555 8.44531ZM16.3555 9.55078C14.6897 9.55078 13.4956 9.55181 12.5879 9.67383C11.6963 9.79373 11.1641 10.0215 10.7715 10.4141C10.3788 10.8067 10.1511 11.3395 10.0313 12.2314C9.90927 13.1392 9.9082 14.3328 9.9082 15.998C9.9082 17.6638 9.90923 18.8579 10.0313 19.7656C10.1511 20.6572 10.3789 21.1894 10.7715 21.582C11.1641 21.9747 11.6969 22.2024 12.5889 22.3223C13.4967 22.4442 14.6902 22.4453 16.3555 22.4453C18.0212 22.4453 19.2153 22.4443 20.123 22.3223C21.0146 22.2024 21.5468 21.9746 21.9395 21.582C22.3321 21.1894 22.5598 20.6566 22.6797 19.7646C22.8017 18.8569 22.8027 17.6633 22.8027 15.998C22.8027 14.3323 22.8017 13.1382 22.6797 12.2305C22.5598 11.3389 22.3321 10.8067 21.9395 10.4141C21.5468 10.0214 21.014 9.79372 20.1221 9.67383C19.2143 9.55185 18.0207 9.55078 16.3555 9.55078Z" fill="black"/>
</svg>
