<svg width="33" height="32" viewBox="0 0 33 32" fill="none" xmlns="http://www.w3.org/2000/svg">
<rect x="0.855469" y="0.5" width="31" height="31" rx="15.5" stroke="#111111"/>
<path d="M10.3661 21.049L10.7603 18.3494C10.7844 18.173 10.8649 18.0089 10.9909 17.8824L18.6288 10.2435C18.7276 10.1434 18.8507 10.0704 18.9861 10.0316C19.1215 9.99287 19.2646 9.98968 19.4016 10.0224C20.1028 10.2159 20.7383 10.5956 21.2408 11.1211C21.7654 11.6264 22.143 12.2644 22.3331 12.9671C22.3658 13.1039 22.3626 13.2469 22.3238 13.3821C22.285 13.5173 22.2119 13.6402 22.1116 13.739L14.4653 21.3681C14.3385 21.4936 14.1741 21.5742 13.9971 21.5977L11.2948 21.9914C11.1672 22.01 11.0369 21.9983 10.9147 21.9572C10.7924 21.9162 10.6815 21.8469 10.5911 21.755C10.5006 21.6632 10.4331 21.5513 10.394 21.4285C10.355 21.3057 10.3454 21.1755 10.3661 21.0483M17.1838 11.6965L20.6667 15.175" stroke="#111111" stroke-width="1.2" stroke-linecap="round" stroke-linejoin="round"/>
</svg>
