<?xml version="1.0" encoding="UTF-8"?>
<svg id="_레이어_1" data-name="레이어_1" xmlns="http://www.w3.org/2000/svg" version="1.1" viewBox="0 0 1540.18 864.59">
  <!-- Generator: Adobe Illustrator 29.6.1, SVG Export Plug-In . SVG Version: 2.1.1 Build 9)  -->
  <defs>
    <style>
      .st0 {
        fill: #231815;
      }

      .st1 {
        fill: #fff;
      }

      .st2, .st3, .st4, .st5, .st6 {
        fill: none;
      }

      .st3, .st4, .st5 {
        stroke: #040000;
      }

      .st3, .st4, .st5, .st6 {
        stroke-miterlimit: 10;
      }

      .st3, .st6 {
        stroke-width: 3.63px;
      }

      .st4 {
        stroke-width: 5.45px;
      }

      .st5 {
        stroke-width: 4.72px;
      }

      .st7 {
        fill: #040000;
      }

      .st6 {
        stroke: #fff;
      }
    </style>
  </defs>
  <g id="_배경_회색">
    <rect class="st2" x="946.91" y="205.01" width="590.91" height="253.56"/>
    <path class="st2" d="M1537.82,841.52h-421.79c-.32-34.89-.64-69.78-.96-104.67h-168.16v-278.28h590.91v382.95h0Z"/>
    <rect class="st2" x="2.36" y="205.01" width="651.09" height="171.81"/>
    <rect class="st2" x="2.36" y="376.81" width="650.36" height="323.53"/>
  </g>
  <g id="_화살표">
    <circle class="st7" cx="506.8" cy="841.52" r="23.07"/>
    <g>
      <line class="st6" x1="506.8" y1="834.35" x2="506.8" y2="851.86"/>
      <polygon class="st1" points="506.8 831.19 496.95 840.18 516.66 840.18 506.8 831.19"/>
    </g>
    <g>
      <line class="st3" x1="45.67" y1="371" x2="45.67" y2="388.51"/>
      <polygon class="st7" points="45.67 367.84 35.82 376.83 55.53 376.83 45.67 367.84"/>
    </g>
    <g>
      <line class="st3" x1="952.75" y1="248.53" x2="935.24" y2="248.53"/>
      <polygon class="st7" points="955.91 248.53 946.92 238.68 946.92 258.38 955.91 248.53"/>
    </g>
    <g>
      <line class="st3" x1="1028.7" y1="464.39" x2="1028.7" y2="446.88"/>
      <polygon class="st7" points="1028.7 467.55 1038.55 458.56 1018.85 458.56 1028.7 467.55"/>
    </g>
    <g>
      <line class="st3" x1="525.18" y1="743.94" x2="542.7" y2="743.94"/>
      <polygon class="st7" points="522.03 743.94 531.01 753.79 531.01 734.09 522.03 743.94"/>
    </g>
    <g>
      <line class="st3" x1="1029.43" y1="742.69" x2="1029.43" y2="725.18"/>
      <polygon class="st7" points="1029.43 745.85 1039.28 736.86 1019.58 736.86 1029.43 745.85"/>
    </g>
  </g>
  <g id="_글">
    <g>
      <path class="st0" d="M424.63,92.41h6.5l4.97,30.52h-4.8l-.87-6.06v.09h-5.45l-.87,5.97h-4.45l4.97-30.52h0ZM429.87,112.81l-2.14-15.08h-.09l-2.09,15.08h4.32Z"/>
      <path class="st0" d="M438.41,92.41h7.11c2.47,0,4.27.57,5.41,1.72,1.13,1.15,1.7,2.91,1.7,5.3v1.88c0,3.17-1.05,5.17-3.14,6.02v.09c1.16.35,1.98,1.06,2.46,2.14.48,1.08.72,2.51.72,4.32v5.36c0,.87.03,1.58.09,2.11.06.54.2,1.07.44,1.59h-4.88c-.17-.49-.29-.96-.35-1.4s-.09-1.22-.09-2.35v-5.58c0-1.4-.23-2.37-.68-2.92-.45-.55-1.23-.83-2.33-.83h-1.66v13.08h-4.8v-30.52h0ZM444.95,105.48c.96,0,1.68-.25,2.16-.74s.72-1.32.72-2.48v-2.35c0-1.1-.2-1.9-.59-2.4-.39-.49-1.01-.74-1.85-.74h-2.18v8.72h1.74Z"/>
      <path class="st0" d="M457.48,121.39c-1.21-1.31-1.81-3.15-1.81-5.54v-16.39c0-2.38.6-4.23,1.81-5.54s2.96-1.96,5.25-1.96,4.05.65,5.25,1.96c1.21,1.31,1.81,3.15,1.81,5.54v3.23h-4.53v-3.53c0-1.89-.8-2.83-2.4-2.83s-2.4.94-2.4,2.83v17.04c0,1.86.8,2.79,2.4,2.79s2.4-.93,2.4-2.79v-4.66h4.53v4.32c0,2.38-.6,4.23-1.81,5.54s-2.96,1.96-5.25,1.96-4.05-.65-5.25-1.96h0Z"/>
      <path class="st0" d="M472.67,92.41h4.8v12.42h5.14v-12.42h4.8v30.52h-4.8v-13.73h-5.14v13.73h-4.8v-30.52Z"/>
      <path class="st0" d="M490.98,92.41h4.8v30.52h-4.8v-30.52Z"/>
      <path class="st0" d="M498.09,92.41h4.84l3.14,23.67h.09l3.14-23.67h4.4l-4.62,30.52h-6.36l-4.62-30.52h-.01Z"/>
      <path class="st0" d="M516,92.41h13.08v4.36h-8.28v8.06h6.58v4.36h-6.58v9.37h8.28v4.36h-13.08v-30.52h0Z"/>
      <path class="st0" d="M539.76,121.37c-1.19-1.32-1.79-3.22-1.79-5.69v-1.74h4.53v2.09c0,1.98.83,2.96,2.48,2.96.81,0,1.43-.24,1.85-.72s.63-1.26.63-2.33c0-1.28-.29-2.4-.87-3.38-.58-.97-1.66-2.14-3.23-3.51-1.98-1.74-3.36-3.32-4.14-4.73s-1.18-3-1.18-4.77c0-2.41.61-4.28,1.83-5.6,1.22-1.32,2.99-1.98,5.32-1.98s4.03.66,5.21,1.98,1.77,3.22,1.77,5.69v1.26h-4.53v-1.57c0-1.05-.2-1.81-.61-2.29s-1-.72-1.79-.72c-1.6,0-2.4.97-2.4,2.92,0,1.1.3,2.14.89,3.1.6.96,1.68,2.12,3.25,3.49,2.01,1.74,3.39,3.33,4.14,4.75.76,1.42,1.13,3.1,1.13,5.01,0,2.5-.62,4.42-1.85,5.75-1.24,1.34-3.03,2.01-5.38,2.01s-4.08-.66-5.27-1.98h0Z"/>
      <path class="st0" d="M555.02,92.41h7.06c2.38,0,4.17.64,5.36,1.92s1.79,3.15,1.79,5.62v3.01c0,2.47-.6,4.35-1.79,5.62-1.19,1.28-2.98,1.92-5.36,1.92h-2.27v12.42h-4.8v-30.52h.01ZM562.08,106.14c.78,0,1.37-.22,1.77-.65.39-.44.59-1.18.59-2.22v-3.62c0-1.05-.2-1.79-.59-2.22-.39-.44-.98-.65-1.77-.65h-2.27v9.37h2.27Z"/>
      <path class="st0" d="M574.03,92.41h6.5l4.97,30.52h-4.8l-.87-6.06v.09h-5.45l-.87,5.97h-4.45l4.97-30.52h0ZM579.26,112.81l-2.14-15.08h-.09l-2.09,15.08h4.32Z"/>
      <path class="st0" d="M589.22,121.39c-1.21-1.31-1.81-3.15-1.81-5.54v-16.39c0-2.38.6-4.23,1.81-5.54s2.96-1.96,5.25-1.96,4.05.65,5.25,1.96c1.21,1.31,1.81,3.15,1.81,5.54v3.23h-4.53v-3.53c0-1.89-.8-2.83-2.4-2.83s-2.4.94-2.4,2.83v17.04c0,1.86.8,2.79,2.4,2.79s2.4-.93,2.4-2.79v-4.66h4.53v4.32c0,2.38-.6,4.23-1.81,5.54s-2.96,1.96-5.25,1.96-4.05-.65-5.25-1.96h0Z"/>
      <path class="st0" d="M604.41,92.41h13.08v4.36h-8.28v8.06h6.58v4.36h-6.58v9.37h8.28v4.36h-13.08v-30.52h0Z"/>
    </g>
    <g>
      <path class="st0" d="M765.42,756.66h7.32c2.38,0,4.17.64,5.36,1.92s1.79,3.15,1.79,5.62v15.43c0,2.47-.6,4.35-1.79,5.62-1.19,1.28-2.98,1.92-5.36,1.92h-7.32v-30.52h0ZM772.66,782.82c.79,0,1.39-.23,1.81-.7.42-.46.63-1.22.63-2.27v-15.87c0-1.05-.21-1.8-.63-2.27-.42-.46-1.02-.7-1.81-.7h-2.44v21.8h2.44Z"/>
      <path class="st0" d="M783.12,756.66h13.08v4.36h-8.28v8.07h6.58v4.36h-6.58v9.37h8.28v4.36h-13.08v-30.52h0Z"/>
      <path class="st0" d="M799.99,785.63c-1.19-1.32-1.79-3.22-1.79-5.69v-1.74h4.53v2.09c0,1.98.83,2.96,2.48,2.96.81,0,1.43-.24,1.85-.72s.63-1.26.63-2.33c0-1.28-.29-2.4-.87-3.38-.58-.97-1.66-2.14-3.23-3.51-1.98-1.74-3.36-3.32-4.14-4.73-.79-1.41-1.18-3-1.18-4.77,0-2.41.61-4.28,1.83-5.6,1.22-1.32,2.99-1.98,5.32-1.98s4.03.66,5.21,1.98,1.77,3.22,1.77,5.69v1.26h-4.53v-1.57c0-1.05-.2-1.81-.61-2.29s-1-.72-1.79-.72c-1.6,0-2.4.97-2.4,2.92,0,1.1.3,2.14.89,3.09.59.96,1.68,2.12,3.25,3.49,2.01,1.74,3.39,3.33,4.14,4.75s1.13,3.09,1.13,5.01c0,2.5-.62,4.42-1.85,5.75-1.24,1.34-3.03,2-5.38,2s-4.08-.66-5.28-1.98l.02.02Z"/>
      <path class="st0" d="M815.25,756.66h4.8v12.86l6.1-12.86h4.79l-5.71,11.2,5.8,19.31h-5.01l-4.05-13.6-1.92,3.88v9.72h-4.8v-30.52h0Z"/>
    </g>
    <g>
      <path class="st0" d="M1188.15,348.99c-1.19-1.32-1.79-3.22-1.79-5.69v-1.74h4.53v2.09c0,1.98.83,2.96,2.48,2.96.81,0,1.43-.24,1.85-.72.42-.48.63-1.26.63-2.33,0-1.28-.29-2.4-.87-3.38-.58-.97-1.66-2.14-3.23-3.51-1.98-1.74-3.36-3.32-4.14-4.73-.79-1.41-1.18-3-1.18-4.77,0-2.41.61-4.28,1.83-5.6,1.22-1.32,2.99-1.98,5.32-1.98s4.03.66,5.21,1.98c1.18,1.32,1.77,3.22,1.77,5.69v1.26h-4.53v-1.57c0-1.05-.2-1.81-.61-2.29s-1-.72-1.79-.72c-1.6,0-2.4.97-2.4,2.92,0,1.1.3,2.14.89,3.1.59.96,1.68,2.12,3.25,3.49,2.01,1.74,3.39,3.33,4.14,4.75.76,1.42,1.13,3.1,1.13,5.01,0,2.5-.62,4.42-1.85,5.75-1.24,1.34-3.03,2.01-5.38,2.01s-4.08-.66-5.28-1.98h.02Z"/>
      <path class="st0" d="M1207.16,324.39h-5.01v-4.36h14.82v4.36h-5.01v26.16h-4.8v-26.16h0Z"/>
      <path class="st0" d="M1220.93,348.99c-1.22-1.32-1.83-3.22-1.83-5.69v-23.28h4.79v23.63c0,1.05.21,1.8.63,2.27.42.47,1.02.7,1.81.7s1.39-.23,1.81-.7c.42-.46.63-1.22.63-2.27v-23.63h4.62v23.28c0,2.47-.61,4.37-1.83,5.69s-2.99,1.98-5.32,1.98-4.1-.66-5.32-1.98h0Z"/>
      <path class="st0" d="M1236.8,320.03h7.32c2.38,0,4.17.64,5.36,1.92,1.19,1.28,1.79,3.15,1.79,5.62v15.43c0,2.47-.6,4.34-1.79,5.62-1.19,1.28-2.98,1.92-5.36,1.92h-7.32v-30.52h0ZM1244.04,346.18c.79,0,1.39-.23,1.81-.7.42-.46.63-1.22.63-2.27v-15.87c0-1.05-.21-1.8-.63-2.27-.42-.46-1.02-.7-1.81-.7h-2.44v21.8h2.44Z"/>
      <path class="st0" d="M1254.5,320.03h4.8v30.52h-4.8v-30.52Z"/>
      <path class="st0" d="M1262.87,320.03h13.08v4.36h-8.28v8.06h6.58v4.36h-6.58v9.37h8.28v4.36h-13.08v-30.52h0Z"/>
      <path class="st0" d="M1279.74,348.99c-1.19-1.32-1.79-3.22-1.79-5.69v-1.74h4.53v2.09c0,1.98.83,2.96,2.48,2.96.81,0,1.43-.24,1.85-.72.42-.48.63-1.26.63-2.33,0-1.28-.29-2.4-.87-3.38-.58-.97-1.66-2.14-3.23-3.51-1.98-1.74-3.36-3.32-4.14-4.73-.79-1.41-1.18-3-1.18-4.77,0-2.41.61-4.28,1.83-5.6,1.22-1.32,2.99-1.98,5.32-1.98s4.03.66,5.21,1.98c1.18,1.32,1.77,3.22,1.77,5.69v1.26h-4.53v-1.57c0-1.05-.2-1.81-.61-2.29s-1-.72-1.79-.72c-1.6,0-2.4.97-2.4,2.92,0,1.1.3,2.14.89,3.1.59.96,1.68,2.12,3.25,3.49,2.01,1.74,3.39,3.33,4.14,4.75.76,1.42,1.13,3.1,1.13,5.01,0,2.5-.62,4.42-1.85,5.75-1.24,1.34-3.03,2.01-5.38,2.01s-4.08-.66-5.28-1.98h.02Z"/>
      <path class="st0" d="M1301.88,347.23c0-2.18.35-4.05,1.05-5.6.7-1.55,1.95-3.28,3.75-5.17,1.77-1.89,3-3.5,3.68-4.84s1.02-2.73,1.02-4.19c0-1.31-.21-2.22-.63-2.72-.42-.51-1.04-.76-1.85-.76-1.66,0-2.49,1-2.49,3.01v3.27h-4.53v-2.96c0-2.47.61-4.37,1.83-5.69s2.99-1.98,5.32-1.98,4.1.66,5.32,1.98,1.83,3.22,1.83,5.69c0,1.86-.44,3.68-1.33,5.45s-2.42,3.81-4.6,6.1c-1.42,1.51-2.38,2.74-2.88,3.68s-.74,1.96-.74,3.03v.65h9.11v4.36h-13.86v-3.31h0Z"/>
    </g>
    <g>
      <path class="st0" d="M1188.15,656.03c-1.19-1.32-1.79-3.22-1.79-5.69v-1.74h4.53v2.09c0,1.98.83,2.96,2.48,2.96.81,0,1.43-.24,1.85-.72.42-.48.63-1.26.63-2.33,0-1.28-.29-2.4-.87-3.38-.58-.97-1.66-2.14-3.23-3.51-1.98-1.74-3.36-3.32-4.14-4.73-.79-1.41-1.18-3-1.18-4.77,0-2.41.61-4.28,1.83-5.6,1.22-1.32,2.99-1.98,5.32-1.98s4.03.66,5.21,1.98c1.18,1.32,1.77,3.22,1.77,5.69v1.26h-4.53v-1.57c0-1.05-.2-1.81-.61-2.29s-1-.72-1.79-.72c-1.6,0-2.4.97-2.4,2.92,0,1.1.3,2.14.89,3.09.59.96,1.68,2.12,3.25,3.49,2.01,1.74,3.39,3.33,4.14,4.75s1.13,3.09,1.13,5.01c0,2.5-.62,4.42-1.85,5.75-1.24,1.34-3.03,2-5.38,2s-4.08-.66-5.28-1.98l.02.02Z"/>
      <path class="st0" d="M1207.16,631.43h-5.01v-4.36h14.82v4.36h-5.01v26.16h-4.8v-26.16h0Z"/>
      <path class="st0" d="M1220.93,656.03c-1.22-1.32-1.83-3.22-1.83-5.69v-23.28h4.79v23.63c0,1.05.21,1.8.63,2.27.42.47,1.02.7,1.81.7s1.39-.23,1.81-.7c.42-.46.63-1.22.63-2.27v-23.63h4.62v23.28c0,2.47-.61,4.37-1.83,5.69s-2.99,1.98-5.32,1.98-4.1-.66-5.32-1.98h0Z"/>
      <path class="st0" d="M1236.8,627.07h7.32c2.38,0,4.17.64,5.36,1.92,1.19,1.28,1.79,3.15,1.79,5.62v15.43c0,2.47-.6,4.35-1.79,5.62-1.19,1.28-2.98,1.92-5.36,1.92h-7.32v-30.52h0ZM1244.04,653.22c.79,0,1.39-.23,1.81-.7.42-.46.63-1.22.63-2.27v-15.87c0-1.05-.21-1.8-.63-2.27-.42-.46-1.02-.7-1.81-.7h-2.44v21.8h2.44Z"/>
      <path class="st0" d="M1254.5,627.07h4.8v30.52h-4.8v-30.52Z"/>
      <path class="st0" d="M1262.87,627.07h13.08v4.36h-8.28v8.07h6.58v4.36h-6.58v9.37h8.28v4.36h-13.08v-30.52h0Z"/>
      <path class="st0" d="M1279.74,656.03c-1.19-1.32-1.79-3.22-1.79-5.69v-1.74h4.53v2.09c0,1.98.83,2.96,2.48,2.96.81,0,1.43-.24,1.85-.72.42-.48.63-1.26.63-2.33,0-1.28-.29-2.4-.87-3.38-.58-.97-1.66-2.14-3.23-3.51-1.98-1.74-3.36-3.32-4.14-4.73-.79-1.41-1.18-3-1.18-4.77,0-2.41.61-4.28,1.83-5.6,1.22-1.32,2.99-1.98,5.32-1.98s4.03.66,5.21,1.98c1.18,1.32,1.77,3.22,1.77,5.69v1.26h-4.53v-1.57c0-1.05-.2-1.81-.61-2.29s-1-.72-1.79-.72c-1.6,0-2.4.97-2.4,2.92,0,1.1.3,2.14.89,3.09.59.96,1.68,2.12,3.25,3.49,2.01,1.74,3.39,3.33,4.14,4.75s1.13,3.09,1.13,5.01c0,2.5-.62,4.42-1.85,5.75-1.24,1.34-3.03,2-5.38,2s-4.08-.66-5.28-1.98l.02.02Z"/>
      <path class="st0" d="M1303.5,656.01c-1.25-1.34-1.88-3.23-1.88-5.67v-16.04c0-2.44.62-4.33,1.88-5.67,1.25-1.34,3.05-2,5.41-2s4.16.67,5.41,2c1.25,1.34,1.88,3.23,1.88,5.67v16.04c0,2.44-.63,4.33-1.88,5.67-1.25,1.34-3.05,2-5.41,2s-4.16-.67-5.41-2ZM1311.39,650.65v-16.65c0-2-.83-3.01-2.48-3.01s-2.49,1-2.49,3.01v16.65c0,2.01.83,3.01,2.49,3.01s2.48-1,2.48-3.01Z"/>
    </g>
    <g>
      <path class="st0" d="M741.55,511.43c-1.19-1.32-1.79-3.22-1.79-5.69v-1.74h4.53v2.09c0,1.98.83,2.96,2.48,2.96.81,0,1.43-.24,1.85-.72s.63-1.26.63-2.33c0-1.28-.29-2.4-.87-3.38-.58-.97-1.66-2.14-3.23-3.51-1.98-1.74-3.36-3.32-4.14-4.73-.79-1.41-1.18-3-1.18-4.77,0-2.41.61-4.28,1.83-5.6,1.22-1.32,2.99-1.98,5.32-1.98s4.03.66,5.21,1.98,1.77,3.22,1.77,5.69v1.26h-4.53v-1.57c0-1.05-.2-1.81-.61-2.29s-1-.72-1.79-.72c-1.6,0-2.4.97-2.4,2.92,0,1.1.3,2.14.89,3.09.59.96,1.68,2.12,3.25,3.49,2.01,1.74,3.39,3.33,4.14,4.75s1.13,3.09,1.13,5.01c0,2.5-.62,4.42-1.85,5.75-1.24,1.34-3.03,2-5.38,2s-4.08-.66-5.28-1.98l.02.02Z"/>
      <path class="st0" d="M756.81,482.46h13.08v4.36h-8.28v8.07h6.58v4.36h-6.58v9.37h8.28v4.36h-13.08v-30.52h0Z"/>
      <path class="st0" d="M772.63,482.46h6.84l3.05,21.84h.09l3.05-21.84h6.84v30.52h-4.53v-23.1h-.09l-3.49,23.1h-4.01l-3.49-23.1h-.09v23.1h-4.19v-30.52h.02Z"/>
      <path class="st0" d="M796.09,482.46h4.8v30.52h-4.8v-30.52Z"/>
      <path class="st0" d="M804.46,482.46h6.02l4.67,18.27h.09v-18.27h4.27v30.52h-4.93l-5.75-22.28h-.09v22.28h-4.27v-30.52h-.01Z"/>
      <path class="st0" d="M826.78,482.46h6.5l4.97,30.52h-4.8l-.87-6.06v.09h-5.45l-.87,5.97h-4.45l4.97-30.52h0ZM832.01,502.87l-2.14-15.08h-.09l-2.09,15.08h4.32Z"/>
      <path class="st0" d="M840.55,482.46h7.11c2.47,0,4.27.57,5.41,1.72,1.13,1.15,1.7,2.91,1.7,5.3v1.88c0,3.17-1.05,5.17-3.14,6.02v.09c1.16.35,1.98,1.06,2.46,2.14s.72,2.51.72,4.32v5.36c0,.87.03,1.58.09,2.11.06.54.2,1.07.44,1.59h-4.88c-.17-.49-.29-.96-.35-1.39-.06-.44-.09-1.22-.09-2.35v-5.58c0-1.39-.23-2.37-.68-2.92s-1.23-.83-2.33-.83h-1.66v13.08h-4.8v-30.54ZM847.09,495.54c.96,0,1.68-.25,2.16-.74s.72-1.32.72-2.48v-2.35c0-1.1-.2-1.9-.59-2.4s-1.01-.74-1.85-.74h-2.18v8.72h1.74Z"/>
    </g>
    <g>
      <path class="st0" d="M300.54,307.93c-1.19-1.32-1.79-3.22-1.79-5.69v-1.74h4.53v2.09c0,1.98.83,2.96,2.48,2.96.81,0,1.43-.24,1.85-.72s.63-1.26.63-2.33c0-1.28-.29-2.4-.87-3.38-.58-.97-1.66-2.14-3.23-3.51-1.98-1.74-3.36-3.32-4.14-4.73-.78-1.41-1.18-3-1.18-4.77,0-2.41.61-4.28,1.83-5.6,1.22-1.32,2.99-1.98,5.32-1.98s4.03.66,5.21,1.98,1.77,3.22,1.77,5.69v1.26h-4.53v-1.57c0-1.05-.2-1.81-.61-2.29-.41-.48-1-.72-1.79-.72-1.6,0-2.4.97-2.4,2.92,0,1.1.3,2.14.89,3.1.6.96,1.68,2.12,3.25,3.49,2.01,1.74,3.39,3.33,4.14,4.75.76,1.42,1.13,3.1,1.13,5.01,0,2.5-.62,4.42-1.85,5.75-1.24,1.34-3.03,2.01-5.38,2.01s-4.08-.66-5.27-1.98h0Z"/>
      <path class="st0" d="M319.54,283.32h-5.01v-4.36h14.82v4.36h-5.01v26.16h-4.8v-26.16Z"/>
      <path class="st0" d="M333.32,307.93c-1.22-1.32-1.83-3.22-1.83-5.69v-23.28h4.8v23.63c0,1.05.21,1.8.63,2.27.42.47,1.02.7,1.81.7s1.39-.23,1.81-.7c.42-.46.63-1.22.63-2.27v-23.63h4.62v23.28c0,2.47-.61,4.37-1.83,5.69s-2.99,1.98-5.32,1.98-4.1-.66-5.32-1.98Z"/>
      <path class="st0" d="M349.19,278.96h7.32c2.38,0,4.17.64,5.36,1.92,1.19,1.28,1.79,3.15,1.79,5.62v15.43c0,2.47-.6,4.34-1.79,5.62-1.19,1.28-2.98,1.92-5.36,1.92h-7.32v-30.52h0ZM356.42,305.12c.78,0,1.39-.23,1.81-.7.42-.46.63-1.22.63-2.27v-15.87c0-1.05-.21-1.8-.63-2.27-.42-.46-1.02-.7-1.81-.7h-2.44v21.8h2.44Z"/>
      <path class="st0" d="M366.88,278.96h4.8v30.52h-4.8v-30.52Z"/>
      <path class="st0" d="M375.25,278.96h13.08v4.36h-8.28v8.06h6.58v4.36h-6.58v9.37h8.28v4.36h-13.08v-30.52h0Z"/>
      <path class="st0" d="M392.12,307.93c-1.19-1.32-1.79-3.22-1.79-5.69v-1.74h4.53v2.09c0,1.98.83,2.96,2.48,2.96.81,0,1.43-.24,1.85-.72s.63-1.26.63-2.33c0-1.28-.29-2.4-.87-3.38-.58-.97-1.66-2.14-3.23-3.51-1.98-1.74-3.36-3.32-4.14-4.73-.78-1.41-1.18-3-1.18-4.77,0-2.41.61-4.28,1.83-5.6,1.22-1.32,2.99-1.98,5.32-1.98s4.03.66,5.21,1.98,1.77,3.22,1.77,5.69v1.26h-4.53v-1.57c0-1.05-.2-1.81-.61-2.29-.41-.48-1-.72-1.79-.72-1.6,0-2.4.97-2.4,2.92,0,1.1.3,2.14.89,3.1.6.96,1.68,2.12,3.25,3.49,2.01,1.74,3.39,3.33,4.14,4.75.76,1.42,1.13,3.1,1.13,5.01,0,2.5-.62,4.42-1.85,5.75-1.24,1.34-3.03,2.01-5.38,2.01s-4.08-.66-5.27-1.98h0Z"/>
      <path class="st0" d="M415.82,307.95c-1.21-1.31-1.81-3.18-1.81-5.62v-2.48h4.53v2.7c0,2,.83,3.01,2.48,3.01.81,0,1.43-.25,1.85-.76s.63-1.4.63-2.68v-2.48c0-1.4-.25-2.39-.74-2.99s-1.29-.89-2.4-.89h-1.61v-4.36h1.74c.96,0,1.68-.25,2.16-.74s.72-1.32.72-2.48v-2.22c0-1.05-.22-1.82-.65-2.31-.44-.49-1.02-.74-1.74-.74-1.54,0-2.31.94-2.31,2.83v2.01h-4.53v-1.61c0-2.44.6-4.32,1.81-5.62,1.21-1.31,2.94-1.96,5.21-1.96s4.04.65,5.23,1.94,1.79,3.16,1.79,5.6v1.09c0,1.66-.28,2.99-.83,3.99s-1.41,1.72-2.57,2.16v.09c1.25.47,2.15,1.22,2.7,2.27.55,1.05.83,2.38.83,4.01v2.7c0,2.44-.6,4.31-1.81,5.6s-2.99,1.94-5.34,1.94-4.13-.65-5.34-1.96v-.04Z"/>
    </g>
    <g>
      <path class="st0" d="M300.54,554.31c-1.19-1.32-1.79-3.22-1.79-5.69v-1.74h4.53v2.09c0,1.98.83,2.96,2.48,2.96.81,0,1.43-.24,1.85-.72s.63-1.26.63-2.33c0-1.28-.29-2.4-.87-3.38-.58-.97-1.66-2.14-3.23-3.51-1.98-1.74-3.36-3.32-4.14-4.73-.78-1.41-1.18-3-1.18-4.77,0-2.41.61-4.28,1.83-5.6,1.22-1.32,2.99-1.98,5.32-1.98s4.03.66,5.21,1.98,1.77,3.22,1.77,5.69v1.26h-4.53v-1.57c0-1.05-.2-1.81-.61-2.29-.41-.48-1-.72-1.79-.72-1.6,0-2.4.97-2.4,2.92,0,1.1.3,2.14.89,3.09.6.96,1.68,2.12,3.25,3.49,2.01,1.74,3.39,3.33,4.14,4.75s1.13,3.09,1.13,5.01c0,2.5-.62,4.42-1.85,5.75-1.24,1.34-3.03,2-5.38,2s-4.08-.66-5.27-1.98v.02Z"/>
      <path class="st0" d="M319.54,529.7h-5.01v-4.36h14.82v4.36h-5.01v26.16h-4.8v-26.16Z"/>
      <path class="st0" d="M333.32,554.31c-1.22-1.32-1.83-3.22-1.83-5.69v-23.28h4.8v23.63c0,1.05.21,1.8.63,2.27.42.47,1.02.7,1.81.7s1.39-.23,1.81-.7c.42-.46.63-1.22.63-2.27v-23.63h4.62v23.28c0,2.47-.61,4.37-1.83,5.69s-2.99,1.98-5.32,1.98-4.1-.66-5.32-1.98Z"/>
      <path class="st0" d="M349.19,525.34h7.32c2.38,0,4.17.64,5.36,1.92,1.19,1.28,1.79,3.15,1.79,5.62v15.43c0,2.47-.6,4.35-1.79,5.62-1.19,1.28-2.98,1.92-5.36,1.92h-7.32v-30.52h0ZM356.42,551.5c.78,0,1.39-.23,1.81-.7.42-.46.63-1.22.63-2.27v-15.87c0-1.05-.21-1.8-.63-2.27-.42-.46-1.02-.7-1.81-.7h-2.44v21.8h2.44Z"/>
      <path class="st0" d="M366.88,525.34h4.8v30.52h-4.8v-30.52Z"/>
      <path class="st0" d="M375.25,525.34h13.08v4.36h-8.28v8.07h6.58v4.36h-6.58v9.37h8.28v4.36h-13.08v-30.52h0Z"/>
      <path class="st0" d="M392.12,554.31c-1.19-1.32-1.79-3.22-1.79-5.69v-1.74h4.53v2.09c0,1.98.83,2.96,2.48,2.96.81,0,1.43-.24,1.85-.72s.63-1.26.63-2.33c0-1.28-.29-2.4-.87-3.38-.58-.97-1.66-2.14-3.23-3.51-1.98-1.74-3.36-3.32-4.14-4.73-.78-1.41-1.18-3-1.18-4.77,0-2.41.61-4.28,1.83-5.6,1.22-1.32,2.99-1.98,5.32-1.98s4.03.66,5.21,1.98,1.77,3.22,1.77,5.69v1.26h-4.53v-1.57c0-1.05-.2-1.81-.61-2.29-.41-.48-1-.72-1.79-.72-1.6,0-2.4.97-2.4,2.92,0,1.1.3,2.14.89,3.09.6.96,1.68,2.12,3.25,3.49,2.01,1.74,3.39,3.33,4.14,4.75s1.13,3.09,1.13,5.01c0,2.5-.62,4.42-1.85,5.75-1.24,1.34-3.03,2-5.38,2s-4.08-.66-5.27-1.98v.02Z"/>
      <path class="st0" d="M421.07,532.58h-5.01v-3.4c1.37,0,2.46-.12,3.29-.35.83-.23,1.49-.62,1.98-1.16.49-.54.93-1.31,1.31-2.33h3.23v30.52h-4.8v-23.28h0Z"/>
    </g>
  </g>
  <g id="_선">
    <g>
      <g>
        <path class="st5" d="M653.45,340.97v360.07H88.86v-36.81"/>
        <line class="st5" x1="653.45" y1="291.6" x2="892.94" y2="291.6"/>
        <path class="st5" d="M983.71,736.93h-36.81v-445.34h36.81"/>
        <line class="st5" x1="946.91" y1="458.57" x2="983.71" y2="458.57"/>
        <line class="st5" x1="1073.07" y1="458.57" x2="1537.82" y2="458.57"/>
        <line class="st5" x1="88.86" y1="376.81" x2="653.45" y2="376.81"/>
      </g>
      <path class="st5" d="M350.06,205.01h1187.76v636.52h-421.8v-36.21"/>
      <path class="st5" d="M531.54,787.25c-11.84-.04-23.67-.07-35.51-.11-10.94,4.57-21.87,9.14-32.81,13.72v40.67H2.36V205.01h264.59V2.36h504.86v202.65"/>
      <line class="st5" x1="279.03" y1="16.73" x2="759.68" y2="16.73"/>
      <line class="st5" x1="932.31" y1="663.41" x2="932.31" y2="724.79"/>
      <line class="st5" x1="1028.65" y1="827.09" x2="944.31" y2="827.09"/>
    </g>
    <path class="st5" d="M550.02,841.52h479.41"/>
    <rect class="st7" x="725.58" y="807.19" width="143.98" height="12.41"/>
    <line class="st5" x1="910.1" y1="736.93" x2="946.91" y2="736.93"/>
    <g>
      <line class="st4" x1="85.25" y1="796.89" x2="95.99" y2="828.62"/>
      <line class="st4" x1="109.96" y1="796.89" x2="120.69" y2="828.62"/>
      <line class="st4" x1="134.67" y1="796.89" x2="145.4" y2="828.62"/>
      <line class="st4" x1="159.38" y1="796.89" x2="170.11" y2="828.62"/>
      <line class="st4" x1="184.08" y1="796.89" x2="194.82" y2="828.62"/>
      <line class="st4" x1="208.79" y1="796.89" x2="219.52" y2="828.62"/>
      <line class="st4" x1="233.5" y1="796.89" x2="244.23" y2="828.62"/>
      <line class="st4" x1="258.2" y1="796.89" x2="268.94" y2="828.62"/>
      <line class="st4" x1="282.91" y1="796.89" x2="293.64" y2="828.62"/>
      <line class="st4" x1="307.62" y1="796.89" x2="318.35" y2="828.62"/>
      <line class="st4" x1="332.32" y1="796.89" x2="343.06" y2="828.62"/>
      <line class="st4" x1="357.03" y1="796.89" x2="367.76" y2="828.62"/>
      <line class="st4" x1="381.74" y1="796.89" x2="392.47" y2="828.62"/>
      <line class="st4" x1="406.45" y1="796.89" x2="417.18" y2="828.62"/>
      <line class="st4" x1="431.15" y1="796.89" x2="441.89" y2="828.62"/>
      <line class="st4" x1="440.8" y1="714.09" x2="430.07" y2="745.83"/>
      <line class="st4" x1="416.1" y1="714.09" x2="405.36" y2="745.83"/>
      <line class="st4" x1="391.39" y1="714.09" x2="380.65" y2="745.83"/>
      <line class="st4" x1="366.68" y1="714.09" x2="355.95" y2="745.83"/>
      <line class="st4" x1="341.97" y1="714.09" x2="331.24" y2="745.83"/>
      <line class="st4" x1="317.27" y1="714.09" x2="306.53" y2="745.83"/>
      <line class="st4" x1="292.56" y1="714.09" x2="281.83" y2="745.83"/>
      <line class="st4" x1="267.85" y1="714.09" x2="257.12" y2="745.83"/>
      <line class="st4" x1="243.15" y1="714.09" x2="232.41" y2="745.83"/>
      <line class="st4" x1="218.44" y1="714.09" x2="207.71" y2="745.83"/>
      <line class="st4" x1="193.73" y1="714.09" x2="183" y2="745.83"/>
      <line class="st4" x1="169.03" y1="714.09" x2="158.29" y2="745.83"/>
      <line class="st4" x1="144.32" y1="714.09" x2="133.58" y2="745.83"/>
      <line class="st4" x1="119.61" y1="714.09" x2="108.88" y2="745.83"/>
      <line class="st4" x1="94.9" y1="714.09" x2="84.17" y2="745.83"/>
    </g>
  </g>
</svg>