<?xml version="1.0" encoding="UTF-8"?>
<svg xmlns="http://www.w3.org/2000/svg" version="1.1" viewBox="0 0 1714.96 1505.2">
  <!-- Generator: Adobe Illustrator 29.6.1, SVG Export Plug-In . SVG Version: 2.1.1 Build 9)  -->
  <defs>
    <style>
      .st0 {
        fill: #231815;
      }

      .st1 {
        stroke: #fff;
      }

      .st1, .st2, .st3, .st4, .st5 {
        fill: none;
      }

      .st1, .st3 {
        stroke-width: 3.63px;
      }

      .st1, .st3, .st4, .st5 {
        stroke-miterlimit: 10;
      }

      .st6 {
        fill: #fff;
      }

      .st3, .st4, .st5 {
        stroke: #040000;
      }

      .st4 {
        stroke-width: 5.45px;
      }

      .st7 {
        fill: #040000;
      }

      .st5 {
        stroke-width: 4.72px;
      }
    </style>
  </defs>
  <g id="_배경_회색" data-name="배경_회색">
    <rect class="st2" x="1034.3" y="484.31" width="590.91" height="253.56"/>
    <path class="st2" d="M1625.21,1120.82h-421.79c-.32-34.89-.64-69.78-.96-104.67h-168.16v-278.28h590.91v382.95Z"/>
    <rect class="st2" x="89.75" y="484.31" width="651.09" height="171.81"/>
    <rect class="st2" x="89.75" y="656.11" width="650.36" height="323.53"/>
  </g>
  <g id="_화살표" data-name="화살표">
    <circle class="st7" cx="594.19" cy="1120.82" r="23.07"/>
    <g>
      <line class="st1" x1="594.19" y1="1113.65" x2="594.19" y2="1131.16"/>
      <polygon class="st6" points="594.19 1110.49 584.34 1119.48 604.05 1119.48 594.19 1110.49"/>
    </g>
    <g>
      <line class="st3" x1="133.06" y1="650.3" x2="133.06" y2="667.81"/>
      <polygon class="st7" points="133.06 647.14 123.21 656.13 142.92 656.13 133.06 647.14"/>
    </g>
    <g>
      <line class="st3" x1="1040.14" y1="527.83" x2="1022.63" y2="527.83"/>
      <polygon class="st7" points="1043.3 527.83 1034.31 517.98 1034.31 537.68 1043.3 527.83"/>
    </g>
    <g>
      <line class="st3" x1="1116.09" y1="743.69" x2="1116.09" y2="726.18"/>
      <polygon class="st7" points="1116.09 746.85 1125.94 737.86 1106.24 737.86 1116.09 746.85"/>
    </g>
    <g>
      <line class="st3" x1="612.57" y1="1023.24" x2="630.09" y2="1023.24"/>
      <polygon class="st7" points="609.42 1023.24 618.4 1033.09 618.4 1013.39 609.42 1023.24"/>
    </g>
    <g>
      <line class="st3" x1="1116.82" y1="1021.99" x2="1116.82" y2="1004.48"/>
      <polygon class="st7" points="1116.82 1025.15 1126.67 1016.16 1106.97 1016.16 1116.82 1025.15"/>
    </g>
  </g>
  <g id="_글" data-name="글">
    <g>
      <path class="st0" d="M512.02,371.71h6.5l4.97,30.52h-4.8l-.87-6.06v.09h-5.45l-.87,5.97h-4.45l4.97-30.52ZM517.26,392.11l-2.14-15.08h-.09l-2.09,15.08h4.32Z"/>
      <path class="st0" d="M525.8,371.71h7.11c2.47,0,4.27.57,5.41,1.72,1.13,1.15,1.7,2.91,1.7,5.3v1.88c0,3.17-1.05,5.17-3.14,6.02v.09c1.16.35,1.98,1.06,2.46,2.14.48,1.08.72,2.51.72,4.32v5.36c0,.87.03,1.58.09,2.11.06.54.2,1.07.44,1.59h-4.88c-.17-.49-.29-.96-.35-1.4-.06-.44-.09-1.22-.09-2.35v-5.58c0-1.4-.23-2.37-.68-2.92-.45-.55-1.23-.83-2.33-.83h-1.66v13.08h-4.8v-30.52ZM532.34,384.78c.96,0,1.68-.25,2.16-.74s.72-1.32.72-2.48v-2.35c0-1.1-.2-1.9-.59-2.4-.39-.49-1.01-.74-1.85-.74h-2.18v8.72h1.74Z"/>
      <path class="st0" d="M544.87,400.69c-1.21-1.31-1.81-3.15-1.81-5.54v-16.39c0-2.38.6-4.23,1.81-5.54,1.21-1.31,2.96-1.96,5.25-1.96s4.05.65,5.25,1.96c1.21,1.31,1.81,3.15,1.81,5.54v3.23h-4.53v-3.53c0-1.89-.8-2.83-2.4-2.83s-2.4.94-2.4,2.83v17.04c0,1.86.8,2.79,2.4,2.79s2.4-.93,2.4-2.79v-4.66h4.53v4.32c0,2.38-.6,4.23-1.81,5.54-1.21,1.31-2.96,1.96-5.25,1.96s-4.05-.65-5.25-1.96Z"/>
      <path class="st0" d="M560.06,371.71h4.8v12.42h5.14v-12.42h4.8v30.52h-4.8v-13.73h-5.14v13.73h-4.8v-30.52Z"/>
      <path class="st0" d="M578.37,371.71h4.8v30.52h-4.8v-30.52Z"/>
      <path class="st0" d="M585.48,371.71h4.84l3.14,23.67h.09l3.14-23.67h4.4l-4.62,30.52h-6.36l-4.62-30.52Z"/>
      <path class="st0" d="M603.39,371.71h13.08v4.36h-8.28v8.06h6.58v4.36h-6.58v9.37h8.28v4.36h-13.08v-30.52Z"/>
      <path class="st0" d="M627.15,400.67c-1.19-1.32-1.79-3.22-1.79-5.69v-1.74h4.53v2.09c0,1.98.83,2.96,2.48,2.96.81,0,1.43-.24,1.85-.72s.63-1.26.63-2.33c0-1.28-.29-2.4-.87-3.38-.58-.97-1.66-2.14-3.23-3.51-1.98-1.74-3.36-3.32-4.14-4.73-.78-1.41-1.18-3-1.18-4.77,0-2.41.61-4.28,1.83-5.6,1.22-1.32,2.99-1.98,5.32-1.98s4.03.66,5.21,1.98c1.18,1.32,1.77,3.22,1.77,5.69v1.26h-4.53v-1.57c0-1.05-.2-1.81-.61-2.29-.41-.48-1-.72-1.79-.72-1.6,0-2.4.97-2.4,2.92,0,1.1.3,2.14.89,3.1.6.96,1.68,2.12,3.25,3.49,2.01,1.74,3.39,3.33,4.14,4.75.76,1.42,1.13,3.1,1.13,5.01,0,2.5-.62,4.42-1.85,5.75-1.24,1.34-3.03,2.01-5.38,2.01s-4.08-.66-5.27-1.98Z"/>
      <path class="st0" d="M642.41,371.71h7.06c2.38,0,4.17.64,5.36,1.92,1.19,1.28,1.79,3.15,1.79,5.62v3.01c0,2.47-.6,4.35-1.79,5.62-1.19,1.28-2.98,1.92-5.36,1.92h-2.27v12.42h-4.8v-30.52ZM649.47,385.44c.78,0,1.37-.22,1.77-.65.39-.44.59-1.18.59-2.22v-3.62c0-1.05-.2-1.79-.59-2.22-.39-.44-.98-.65-1.77-.65h-2.27v9.37h2.27Z"/>
      <path class="st0" d="M661.42,371.71h6.5l4.97,30.52h-4.8l-.87-6.06v.09h-5.45l-.87,5.97h-4.45l4.97-30.52ZM666.65,392.11l-2.14-15.08h-.09l-2.09,15.08h4.32Z"/>
      <path class="st0" d="M676.61,400.69c-1.21-1.31-1.81-3.15-1.81-5.54v-16.39c0-2.38.6-4.23,1.81-5.54,1.21-1.31,2.96-1.96,5.25-1.96s4.05.65,5.25,1.96c1.21,1.31,1.81,3.15,1.81,5.54v3.23h-4.53v-3.53c0-1.89-.8-2.83-2.4-2.83s-2.4.94-2.4,2.83v17.04c0,1.86.8,2.79,2.4,2.79s2.4-.93,2.4-2.79v-4.66h4.53v4.32c0,2.38-.6,4.23-1.81,5.54-1.21,1.31-2.96,1.96-5.25,1.96s-4.05-.65-5.25-1.96Z"/>
      <path class="st0" d="M691.8,371.71h13.08v4.36h-8.28v8.06h6.58v4.36h-6.58v9.37h8.28v4.36h-13.08v-30.52Z"/>
    </g>
    <g>
      <path class="st0" d="M852.81,1035.96h7.32c2.38,0,4.17.64,5.36,1.92,1.19,1.28,1.79,3.15,1.79,5.62v15.43c0,2.47-.6,4.35-1.79,5.62-1.19,1.28-2.98,1.92-5.36,1.92h-7.32v-30.52ZM860.05,1062.12c.79,0,1.39-.23,1.81-.7.42-.46.63-1.22.63-2.27v-15.87c0-1.05-.21-1.8-.63-2.27-.42-.46-1.02-.7-1.81-.7h-2.44v21.8h2.44Z"/>
      <path class="st0" d="M870.51,1035.96h13.08v4.36h-8.28v8.07h6.58v4.36h-6.58v9.37h8.28v4.36h-13.08v-30.52Z"/>
      <path class="st0" d="M887.38,1064.93c-1.19-1.32-1.79-3.22-1.79-5.69v-1.74h4.53v2.09c0,1.98.83,2.96,2.48,2.96.81,0,1.43-.24,1.85-.72.42-.48.63-1.26.63-2.33,0-1.28-.29-2.4-.87-3.38-.58-.97-1.66-2.14-3.23-3.51-1.98-1.74-3.36-3.32-4.14-4.73-.79-1.41-1.18-3-1.18-4.77,0-2.41.61-4.28,1.83-5.6,1.22-1.32,2.99-1.98,5.32-1.98s4.03.66,5.21,1.98c1.18,1.32,1.77,3.22,1.77,5.69v1.26h-4.53v-1.57c0-1.05-.2-1.81-.61-2.29s-1-.72-1.79-.72c-1.6,0-2.4.97-2.4,2.92,0,1.1.3,2.14.89,3.09.59.96,1.68,2.12,3.25,3.49,2.01,1.74,3.39,3.33,4.14,4.75s1.13,3.09,1.13,5.01c0,2.5-.62,4.42-1.85,5.75-1.24,1.34-3.03,2-5.38,2s-4.08-.66-5.28-1.98Z"/>
      <path class="st0" d="M902.64,1035.96h4.8v12.86l6.1-12.86h4.79l-5.71,11.2,5.8,19.31h-5.01l-4.05-13.6-1.92,3.88v9.72h-4.8v-30.52Z"/>
    </g>
    <g>
      <path class="st0" d="M1275.54,628.29c-1.19-1.32-1.79-3.22-1.79-5.69v-1.74h4.53v2.09c0,1.98.83,2.96,2.48,2.96.81,0,1.43-.24,1.85-.72.42-.48.63-1.26.63-2.33,0-1.28-.29-2.4-.87-3.38-.58-.97-1.66-2.14-3.23-3.51-1.98-1.74-3.36-3.32-4.14-4.73-.79-1.41-1.18-3-1.18-4.77,0-2.41.61-4.28,1.83-5.6,1.22-1.32,2.99-1.98,5.32-1.98s4.03.66,5.21,1.98c1.18,1.32,1.77,3.22,1.77,5.69v1.26h-4.53v-1.57c0-1.05-.2-1.81-.61-2.29s-1-.72-1.79-.72c-1.6,0-2.4.97-2.4,2.92,0,1.1.3,2.14.89,3.1.59.96,1.68,2.12,3.25,3.49,2.01,1.74,3.39,3.33,4.14,4.75.76,1.42,1.13,3.1,1.13,5.01,0,2.5-.62,4.42-1.85,5.75-1.24,1.34-3.03,2.01-5.38,2.01s-4.08-.66-5.28-1.98Z"/>
      <path class="st0" d="M1294.55,603.69h-5.01v-4.36h14.82v4.36h-5.01v26.16h-4.8v-26.16Z"/>
      <path class="st0" d="M1308.32,628.29c-1.22-1.32-1.83-3.22-1.83-5.69v-23.28h4.79v23.63c0,1.05.21,1.8.63,2.27.42.47,1.02.7,1.81.7s1.39-.23,1.81-.7c.42-.46.63-1.22.63-2.27v-23.63h4.62v23.28c0,2.47-.61,4.37-1.83,5.69-1.22,1.32-2.99,1.98-5.32,1.98s-4.1-.66-5.32-1.98Z"/>
      <path class="st0" d="M1324.19,599.33h7.32c2.38,0,4.17.64,5.36,1.92,1.19,1.28,1.79,3.15,1.79,5.62v15.43c0,2.47-.6,4.34-1.79,5.62-1.19,1.28-2.98,1.92-5.36,1.92h-7.32v-30.52ZM1331.43,625.48c.79,0,1.39-.23,1.81-.7.42-.46.63-1.22.63-2.27v-15.87c0-1.05-.21-1.8-.63-2.27-.42-.46-1.02-.7-1.81-.7h-2.44v21.8h2.44Z"/>
      <path class="st0" d="M1341.89,599.33h4.8v30.52h-4.8v-30.52Z"/>
      <path class="st0" d="M1350.26,599.33h13.08v4.36h-8.28v8.06h6.58v4.36h-6.58v9.37h8.28v4.36h-13.08v-30.52Z"/>
      <path class="st0" d="M1367.13,628.29c-1.19-1.32-1.79-3.22-1.79-5.69v-1.74h4.53v2.09c0,1.98.83,2.96,2.48,2.96.81,0,1.43-.24,1.85-.72.42-.48.63-1.26.63-2.33,0-1.28-.29-2.4-.87-3.38-.58-.97-1.66-2.14-3.23-3.51-1.98-1.74-3.36-3.32-4.14-4.73-.79-1.41-1.18-3-1.18-4.77,0-2.41.61-4.28,1.83-5.6,1.22-1.32,2.99-1.98,5.32-1.98s4.03.66,5.21,1.98c1.18,1.32,1.77,3.22,1.77,5.69v1.26h-4.53v-1.57c0-1.05-.2-1.81-.61-2.29s-1-.72-1.79-.72c-1.6,0-2.4.97-2.4,2.92,0,1.1.3,2.14.89,3.1.59.96,1.68,2.12,3.25,3.49,2.01,1.74,3.39,3.33,4.14,4.75.76,1.42,1.13,3.1,1.13,5.01,0,2.5-.62,4.42-1.85,5.75-1.24,1.34-3.03,2.01-5.38,2.01s-4.08-.66-5.28-1.98Z"/>
      <path class="st0" d="M1389.27,626.53c0-2.18.35-4.05,1.05-5.6.7-1.55,1.95-3.28,3.75-5.17,1.77-1.89,3-3.5,3.68-4.84.68-1.34,1.02-2.73,1.02-4.19,0-1.31-.21-2.22-.63-2.72-.42-.51-1.04-.76-1.85-.76-1.66,0-2.49,1-2.49,3.01v3.27h-4.53v-2.96c0-2.47.61-4.37,1.83-5.69,1.22-1.32,2.99-1.98,5.32-1.98s4.1.66,5.32,1.98c1.22,1.32,1.83,3.22,1.83,5.69,0,1.86-.44,3.68-1.33,5.45-.89,1.77-2.42,3.81-4.6,6.1-1.42,1.51-2.38,2.74-2.88,3.68-.5.94-.74,1.96-.74,3.03v.65h9.11v4.36h-13.86v-3.31Z"/>
    </g>
    <g>
      <path class="st0" d="M1275.54,935.33c-1.19-1.32-1.79-3.22-1.79-5.69v-1.74h4.53v2.09c0,1.98.83,2.96,2.48,2.96.81,0,1.43-.24,1.85-.72.42-.48.63-1.26.63-2.33,0-1.28-.29-2.4-.87-3.38-.58-.97-1.66-2.14-3.23-3.51-1.98-1.74-3.36-3.32-4.14-4.73-.79-1.41-1.18-3-1.18-4.77,0-2.41.61-4.28,1.83-5.6,1.22-1.32,2.99-1.98,5.32-1.98s4.03.66,5.21,1.98c1.18,1.32,1.77,3.22,1.77,5.69v1.26h-4.53v-1.57c0-1.05-.2-1.81-.61-2.29s-1-.72-1.79-.72c-1.6,0-2.4.97-2.4,2.92,0,1.1.3,2.14.89,3.09.59.96,1.68,2.12,3.25,3.49,2.01,1.74,3.39,3.33,4.14,4.75s1.13,3.09,1.13,5.01c0,2.5-.62,4.42-1.85,5.75-1.24,1.34-3.03,2-5.38,2s-4.08-.66-5.28-1.98Z"/>
      <path class="st0" d="M1294.55,910.73h-5.01v-4.36h14.82v4.36h-5.01v26.16h-4.8v-26.16Z"/>
      <path class="st0" d="M1308.32,935.33c-1.22-1.32-1.83-3.22-1.83-5.69v-23.28h4.79v23.63c0,1.05.21,1.8.63,2.27.42.47,1.02.7,1.81.7s1.39-.23,1.81-.7c.42-.46.63-1.22.63-2.27v-23.63h4.62v23.28c0,2.47-.61,4.37-1.83,5.69-1.22,1.32-2.99,1.98-5.32,1.98s-4.1-.66-5.32-1.98Z"/>
      <path class="st0" d="M1324.19,906.37h7.32c2.38,0,4.17.64,5.36,1.92,1.19,1.28,1.79,3.15,1.79,5.62v15.43c0,2.47-.6,4.35-1.79,5.62-1.19,1.28-2.98,1.92-5.36,1.92h-7.32v-30.52ZM1331.43,932.52c.79,0,1.39-.23,1.81-.7.42-.46.63-1.22.63-2.27v-15.87c0-1.05-.21-1.8-.63-2.27-.42-.46-1.02-.7-1.81-.7h-2.44v21.8h2.44Z"/>
      <path class="st0" d="M1341.89,906.37h4.8v30.52h-4.8v-30.52Z"/>
      <path class="st0" d="M1350.26,906.37h13.08v4.36h-8.28v8.07h6.58v4.36h-6.58v9.37h8.28v4.36h-13.08v-30.52Z"/>
      <path class="st0" d="M1367.13,935.33c-1.19-1.32-1.79-3.22-1.79-5.69v-1.74h4.53v2.09c0,1.98.83,2.96,2.48,2.96.81,0,1.43-.24,1.85-.72.42-.48.63-1.26.63-2.33,0-1.28-.29-2.4-.87-3.38-.58-.97-1.66-2.14-3.23-3.51-1.98-1.74-3.36-3.32-4.14-4.73-.79-1.41-1.18-3-1.18-4.77,0-2.41.61-4.28,1.83-5.6,1.22-1.32,2.99-1.98,5.32-1.98s4.03.66,5.21,1.98c1.18,1.32,1.77,3.22,1.77,5.69v1.26h-4.53v-1.57c0-1.05-.2-1.81-.61-2.29s-1-.72-1.79-.72c-1.6,0-2.4.97-2.4,2.92,0,1.1.3,2.14.89,3.09.59.96,1.68,2.12,3.25,3.49,2.01,1.74,3.39,3.33,4.14,4.75s1.13,3.09,1.13,5.01c0,2.5-.62,4.42-1.85,5.75-1.24,1.34-3.03,2-5.38,2s-4.08-.66-5.28-1.98Z"/>
      <path class="st0" d="M1390.89,935.31c-1.25-1.34-1.88-3.23-1.88-5.67v-16.04c0-2.44.62-4.33,1.88-5.67,1.25-1.34,3.05-2,5.41-2s4.16.67,5.41,2c1.25,1.34,1.88,3.23,1.88,5.67v16.04c0,2.44-.63,4.33-1.88,5.67-1.25,1.34-3.05,2-5.41,2s-4.16-.67-5.41-2ZM1398.78,929.95v-16.65c0-2-.83-3.01-2.48-3.01s-2.49,1-2.49,3.01v16.65c0,2.01.83,3.01,2.49,3.01s2.48-1,2.48-3.01Z"/>
    </g>
    <g>
      <path class="st0" d="M828.94,790.73c-1.19-1.32-1.79-3.22-1.79-5.69v-1.74h4.53v2.09c0,1.98.83,2.96,2.48,2.96.81,0,1.43-.24,1.85-.72.42-.48.63-1.26.63-2.33,0-1.28-.29-2.4-.87-3.38-.58-.97-1.66-2.14-3.23-3.51-1.98-1.74-3.36-3.32-4.14-4.73-.79-1.41-1.18-3-1.18-4.77,0-2.41.61-4.28,1.83-5.6,1.22-1.32,2.99-1.98,5.32-1.98s4.03.66,5.21,1.98c1.18,1.32,1.77,3.22,1.77,5.69v1.26h-4.53v-1.57c0-1.05-.2-1.81-.61-2.29s-1-.72-1.79-.72c-1.6,0-2.4.97-2.4,2.92,0,1.1.3,2.14.89,3.09.59.96,1.68,2.12,3.25,3.49,2.01,1.74,3.39,3.33,4.14,4.75s1.13,3.09,1.13,5.01c0,2.5-.62,4.42-1.85,5.75-1.24,1.34-3.03,2-5.38,2s-4.08-.66-5.28-1.98Z"/>
      <path class="st0" d="M844.2,761.76h13.08v4.36h-8.28v8.07h6.58v4.36h-6.58v9.37h8.28v4.36h-13.08v-30.52Z"/>
      <path class="st0" d="M860.02,761.76h6.84l3.05,21.84h.09l3.05-21.84h6.84v30.52h-4.53v-23.1h-.09l-3.49,23.1h-4.01l-3.49-23.1h-.09v23.1h-4.19v-30.52Z"/>
      <path class="st0" d="M883.48,761.76h4.8v30.52h-4.8v-30.52Z"/>
      <path class="st0" d="M891.85,761.76h6.02l4.67,18.27h.09v-18.27h4.27v30.52h-4.93l-5.75-22.28h-.09v22.28h-4.27v-30.52Z"/>
      <path class="st0" d="M914.17,761.76h6.5l4.97,30.52h-4.8l-.87-6.06v.09h-5.45l-.87,5.97h-4.45l4.97-30.52ZM919.4,782.17l-2.14-15.08h-.09l-2.09,15.08h4.32Z"/>
      <path class="st0" d="M927.94,761.76h7.11c2.47,0,4.27.57,5.41,1.72,1.13,1.15,1.7,2.91,1.7,5.3v1.88c0,3.17-1.05,5.17-3.14,6.02v.09c1.16.35,1.98,1.06,2.46,2.14s.72,2.51.72,4.32v5.36c0,.87.03,1.58.09,2.11.06.54.2,1.07.44,1.59h-4.88c-.17-.49-.29-.96-.35-1.39-.06-.44-.09-1.22-.09-2.35v-5.58c0-1.39-.23-2.37-.68-2.92-.45-.55-1.23-.83-2.33-.83h-1.66v13.08h-4.8v-30.52ZM934.48,774.84c.96,0,1.68-.25,2.16-.74.48-.49.72-1.32.72-2.48v-2.35c0-1.1-.2-1.9-.59-2.4s-1.01-.74-1.85-.74h-2.18v8.72h1.74Z"/>
    </g>
    <g>
      <path class="st0" d="M387.93,587.23c-1.19-1.32-1.79-3.22-1.79-5.69v-1.74h4.53v2.09c0,1.98.83,2.96,2.48,2.96.81,0,1.43-.24,1.85-.72s.63-1.26.63-2.33c0-1.28-.29-2.4-.87-3.38-.58-.97-1.66-2.14-3.23-3.51-1.98-1.74-3.36-3.32-4.14-4.73-.78-1.41-1.18-3-1.18-4.77,0-2.41.61-4.28,1.83-5.6,1.22-1.32,2.99-1.98,5.32-1.98s4.03.66,5.21,1.98c1.18,1.32,1.77,3.22,1.77,5.69v1.26h-4.53v-1.57c0-1.05-.2-1.81-.61-2.29-.41-.48-1-.72-1.79-.72-1.6,0-2.4.97-2.4,2.92,0,1.1.3,2.14.89,3.1.6.96,1.68,2.12,3.25,3.49,2.01,1.74,3.39,3.33,4.14,4.75.76,1.42,1.13,3.1,1.13,5.01,0,2.5-.62,4.42-1.85,5.75-1.24,1.34-3.03,2.01-5.38,2.01s-4.08-.66-5.27-1.98Z"/>
      <path class="st0" d="M406.93,562.62h-5.01v-4.36h14.82v4.36h-5.01v26.16h-4.8v-26.16Z"/>
      <path class="st0" d="M420.71,587.23c-1.22-1.32-1.83-3.22-1.83-5.69v-23.28h4.8v23.63c0,1.05.21,1.8.63,2.27.42.47,1.02.7,1.81.7s1.39-.23,1.81-.7c.42-.46.63-1.22.63-2.27v-23.63h4.62v23.28c0,2.47-.61,4.37-1.83,5.69-1.22,1.32-2.99,1.98-5.32,1.98s-4.1-.66-5.32-1.98Z"/>
      <path class="st0" d="M436.58,558.26h7.32c2.38,0,4.17.64,5.36,1.92,1.19,1.28,1.79,3.15,1.79,5.62v15.43c0,2.47-.6,4.34-1.79,5.62-1.19,1.28-2.98,1.92-5.36,1.92h-7.32v-30.52ZM443.81,584.42c.78,0,1.39-.23,1.81-.7.42-.46.63-1.22.63-2.27v-15.87c0-1.05-.21-1.8-.63-2.27-.42-.46-1.02-.7-1.81-.7h-2.44v21.8h2.44Z"/>
      <path class="st0" d="M454.27,558.26h4.8v30.52h-4.8v-30.52Z"/>
      <path class="st0" d="M462.64,558.26h13.08v4.36h-8.28v8.06h6.58v4.36h-6.58v9.37h8.28v4.36h-13.08v-30.52Z"/>
      <path class="st0" d="M479.51,587.23c-1.19-1.32-1.79-3.22-1.79-5.69v-1.74h4.53v2.09c0,1.98.83,2.96,2.48,2.96.81,0,1.43-.24,1.85-.72s.63-1.26.63-2.33c0-1.28-.29-2.4-.87-3.38-.58-.97-1.66-2.14-3.23-3.51-1.98-1.74-3.36-3.32-4.14-4.73-.78-1.41-1.18-3-1.18-4.77,0-2.41.61-4.28,1.83-5.6,1.22-1.32,2.99-1.98,5.32-1.98s4.03.66,5.21,1.98c1.18,1.32,1.77,3.22,1.77,5.69v1.26h-4.53v-1.57c0-1.05-.2-1.81-.61-2.29-.41-.48-1-.72-1.79-.72-1.6,0-2.4.97-2.4,2.92,0,1.1.3,2.14.89,3.1.6.96,1.68,2.12,3.25,3.49,2.01,1.74,3.39,3.33,4.14,4.75.76,1.42,1.13,3.1,1.13,5.01,0,2.5-.62,4.42-1.85,5.75-1.24,1.34-3.03,2.01-5.38,2.01s-4.08-.66-5.27-1.98Z"/>
      <path class="st0" d="M503.21,587.25c-1.21-1.31-1.81-3.18-1.81-5.62v-2.48h4.53v2.7c0,2,.83,3.01,2.48,3.01.81,0,1.43-.25,1.85-.76.42-.51.63-1.4.63-2.68v-2.48c0-1.4-.25-2.39-.74-2.99-.49-.6-1.29-.89-2.4-.89h-1.61v-4.36h1.74c.96,0,1.68-.25,2.16-.74.48-.49.72-1.32.72-2.48v-2.22c0-1.05-.22-1.82-.65-2.31-.44-.49-1.02-.74-1.74-.74-1.54,0-2.31.94-2.31,2.83v2.01h-4.53v-1.61c0-2.44.6-4.32,1.81-5.62,1.21-1.31,2.94-1.96,5.21-1.96s4.04.65,5.23,1.94c1.19,1.29,1.79,3.16,1.79,5.6v1.09c0,1.66-.28,2.99-.83,3.99-.55,1-1.41,1.72-2.57,2.16v.09c1.25.47,2.15,1.22,2.7,2.27.55,1.05.83,2.38.83,4.01v2.7c0,2.44-.6,4.31-1.81,5.6-1.21,1.29-2.99,1.94-5.34,1.94s-4.13-.65-5.34-1.96Z"/>
    </g>
    <g>
      <path class="st0" d="M387.93,833.61c-1.19-1.32-1.79-3.22-1.79-5.69v-1.74h4.53v2.09c0,1.98.83,2.96,2.48,2.96.81,0,1.43-.24,1.85-.72s.63-1.26.63-2.33c0-1.28-.29-2.4-.87-3.38-.58-.97-1.66-2.14-3.23-3.51-1.98-1.74-3.36-3.32-4.14-4.73-.78-1.41-1.18-3-1.18-4.77,0-2.41.61-4.28,1.83-5.6,1.22-1.32,2.99-1.98,5.32-1.98s4.03.66,5.21,1.98c1.18,1.32,1.77,3.22,1.77,5.69v1.26h-4.53v-1.57c0-1.05-.2-1.81-.61-2.29-.41-.48-1-.72-1.79-.72-1.6,0-2.4.97-2.4,2.92,0,1.1.3,2.14.89,3.09.6.96,1.68,2.12,3.25,3.49,2.01,1.74,3.39,3.33,4.14,4.75s1.13,3.09,1.13,5.01c0,2.5-.62,4.42-1.85,5.75-1.24,1.34-3.03,2-5.38,2s-4.08-.66-5.27-1.98Z"/>
      <path class="st0" d="M406.93,809h-5.01v-4.36h14.82v4.36h-5.01v26.16h-4.8v-26.16Z"/>
      <path class="st0" d="M420.71,833.61c-1.22-1.32-1.83-3.22-1.83-5.69v-23.28h4.8v23.63c0,1.05.21,1.8.63,2.27.42.47,1.02.7,1.81.7s1.39-.23,1.81-.7c.42-.46.63-1.22.63-2.27v-23.63h4.62v23.28c0,2.47-.61,4.37-1.83,5.69-1.22,1.32-2.99,1.98-5.32,1.98s-4.1-.66-5.32-1.98Z"/>
      <path class="st0" d="M436.58,804.64h7.32c2.38,0,4.17.64,5.36,1.92,1.19,1.28,1.79,3.15,1.79,5.62v15.43c0,2.47-.6,4.35-1.79,5.62-1.19,1.28-2.98,1.92-5.36,1.92h-7.32v-30.52ZM443.81,830.8c.78,0,1.39-.23,1.81-.7.42-.46.63-1.22.63-2.27v-15.87c0-1.05-.21-1.8-.63-2.27-.42-.46-1.02-.7-1.81-.7h-2.44v21.8h2.44Z"/>
      <path class="st0" d="M454.27,804.64h4.8v30.52h-4.8v-30.52Z"/>
      <path class="st0" d="M462.64,804.64h13.08v4.36h-8.28v8.07h6.58v4.36h-6.58v9.37h8.28v4.36h-13.08v-30.52Z"/>
      <path class="st0" d="M479.51,833.61c-1.19-1.32-1.79-3.22-1.79-5.69v-1.74h4.53v2.09c0,1.98.83,2.96,2.48,2.96.81,0,1.43-.24,1.85-.72s.63-1.26.63-2.33c0-1.28-.29-2.4-.87-3.38-.58-.97-1.66-2.14-3.23-3.51-1.98-1.74-3.36-3.32-4.14-4.73-.78-1.41-1.18-3-1.18-4.77,0-2.41.61-4.28,1.83-5.6,1.22-1.32,2.99-1.98,5.32-1.98s4.03.66,5.21,1.98c1.18,1.32,1.77,3.22,1.77,5.69v1.26h-4.53v-1.57c0-1.05-.2-1.81-.61-2.29-.41-.48-1-.72-1.79-.72-1.6,0-2.4.97-2.4,2.92,0,1.1.3,2.14.89,3.09.6.96,1.68,2.12,3.25,3.49,2.01,1.74,3.39,3.33,4.14,4.75s1.13,3.09,1.13,5.01c0,2.5-.62,4.42-1.85,5.75-1.24,1.34-3.03,2-5.38,2s-4.08-.66-5.27-1.98Z"/>
      <path class="st0" d="M508.46,811.88h-5.01v-3.4c1.37,0,2.46-.12,3.29-.35.83-.23,1.49-.62,1.98-1.16.49-.54.93-1.31,1.31-2.33h3.23v30.52h-4.8v-23.28Z"/>
    </g>
  </g>
  <g id="_선" data-name="선">
    <g>
      <g>
        <path class="st5" d="M740.84,620.27v360.07H176.25v-36.81"/>
        <line class="st5" x1="740.84" y1="570.9" x2="980.33" y2="570.9"/>
        <path class="st5" d="M1071.1,1016.23h-36.81v-445.34h36.81"/>
        <line class="st5" x1="1034.3" y1="737.87" x2="1071.1" y2="737.87"/>
        <line class="st5" x1="1160.46" y1="737.87" x2="1625.21" y2="737.87"/>
        <line class="st5" x1="176.25" y1="656.11" x2="740.84" y2="656.11"/>
      </g>
      <path class="st5" d="M437.45,484.31h1187.76v636.52h-421.8v-36.21"/>
      <path class="st5" d="M618.93,1066.55c-11.84-.04-23.67-.07-35.51-.11-10.94,4.57-21.87,9.14-32.81,13.72v40.67H89.75V484.31h264.59v-202.65h504.86v202.65"/>
      <line class="st5" x1="366.42" y1="296.03" x2="847.07" y2="296.03"/>
      <line class="st5" x1="1019.7" y1="942.71" x2="1019.7" y2="1004.09"/>
      <line class="st5" x1="1116.04" y1="1106.39" x2="1031.7" y2="1106.39"/>
    </g>
    <path class="st5" d="M637.41,1120.82h479.41"/>
    <rect class="st7" x="812.97" y="1086.49" width="143.98" height="12.41"/>
    <line class="st5" x1="997.49" y1="1016.23" x2="1034.3" y2="1016.23"/>
    <g>
      <line class="st4" x1="172.64" y1="1076.19" x2="183.38" y2="1107.92"/>
      <line class="st4" x1="197.35" y1="1076.19" x2="208.08" y2="1107.92"/>
      <line class="st4" x1="222.06" y1="1076.19" x2="232.79" y2="1107.92"/>
      <line class="st4" x1="246.77" y1="1076.19" x2="257.5" y2="1107.92"/>
      <line class="st4" x1="271.47" y1="1076.19" x2="282.21" y2="1107.92"/>
      <line class="st4" x1="296.18" y1="1076.19" x2="306.91" y2="1107.92"/>
      <line class="st4" x1="320.89" y1="1076.19" x2="331.62" y2="1107.92"/>
      <line class="st4" x1="345.59" y1="1076.19" x2="356.33" y2="1107.92"/>
      <line class="st4" x1="370.3" y1="1076.19" x2="381.03" y2="1107.92"/>
      <line class="st4" x1="395.01" y1="1076.19" x2="405.74" y2="1107.92"/>
      <line class="st4" x1="419.71" y1="1076.19" x2="430.45" y2="1107.92"/>
      <line class="st4" x1="444.42" y1="1076.19" x2="455.15" y2="1107.92"/>
      <line class="st4" x1="469.13" y1="1076.19" x2="479.86" y2="1107.92"/>
      <line class="st4" x1="493.84" y1="1076.19" x2="504.57" y2="1107.92"/>
      <line class="st4" x1="518.54" y1="1076.19" x2="529.28" y2="1107.92"/>
      <line class="st4" x1="528.19" y1="993.39" x2="517.46" y2="1025.13"/>
      <line class="st4" x1="503.49" y1="993.39" x2="492.75" y2="1025.13"/>
      <line class="st4" x1="478.78" y1="993.39" x2="468.04" y2="1025.13"/>
      <line class="st4" x1="454.07" y1="993.39" x2="443.34" y2="1025.13"/>
      <line class="st4" x1="429.36" y1="993.39" x2="418.63" y2="1025.13"/>
      <line class="st4" x1="404.66" y1="993.39" x2="393.92" y2="1025.13"/>
      <line class="st4" x1="379.95" y1="993.39" x2="369.22" y2="1025.13"/>
      <line class="st4" x1="355.24" y1="993.39" x2="344.51" y2="1025.13"/>
      <line class="st4" x1="330.54" y1="993.39" x2="319.8" y2="1025.13"/>
      <line class="st4" x1="305.83" y1="993.39" x2="295.1" y2="1025.13"/>
      <line class="st4" x1="281.12" y1="993.39" x2="270.39" y2="1025.13"/>
      <line class="st4" x1="256.42" y1="993.39" x2="245.68" y2="1025.13"/>
      <line class="st4" x1="231.71" y1="993.39" x2="220.97" y2="1025.13"/>
      <line class="st4" x1="207" y1="993.39" x2="196.27" y2="1025.13"/>
      <line class="st4" x1="182.29" y1="993.39" x2="171.56" y2="1025.13"/>
    </g>
  </g>
</svg>