<svg width="161" height="161" viewBox="0 0 161 161" fill="none" xmlns="http://www.w3.org/2000/svg">
<circle cx="80.0584" cy="80.0584" r="80.0584" fill="#FC441E"/>
<path d="M25.0234 53.3516V81.8419V84.6419V110.008H34.0484V84.6419V81.8419V53.3516H25.0234Z" fill="#040000"/>
<path d="M76.1631 71.5283H65.5852H64.5461H55.1055V80.5533H64.5461H65.5852H76.1631V71.5283Z" fill="#040000"/>
<path d="M76.1631 85.251H65.5852H64.5461H55.1055V94.2759H64.5461H65.5852H76.1631V85.251Z" fill="#040000"/>
<path d="M89.8611 88.5074L89.5125 85.2754L86.0793 53.3682H77.002L80.5399 86.2409L80.8869 89.4729L83.1026 110.008H92.1799L89.8611 88.5074Z" fill="#040000"/>
<path d="M99.2432 53.3682L96.3615 80.1583L96.0129 83.3886L93.1426 110.008H102.22L104.985 84.3541L105.334 81.1238L108.321 53.3682H99.2432Z" fill="#040000"/>
<path d="M37.6868 53.3516H35.0488V62.3765H37.5428C40.8729 62.3765 43.573 65.0766 43.573 68.4068H52.598C52.598 68.356 52.598 68.3069 52.598 68.2562C52.5947 60.0233 45.9197 53.3516 37.6884 53.3516H37.6868Z" fill="#040000"/>
<path d="M43.5723 69.4092C43.5723 72.7393 40.8722 75.4394 37.5421 75.4394H35.0547V84.4644H37.5421C45.8568 84.4644 52.5973 77.7239 52.5973 69.4092H43.5723Z" fill="#040000"/>
<path d="M46.9973 108.208L47.9432 110.008H58.1349L54.9897 104.014L53.9211 101.976L45.2562 85.4678H35.0645L45.9287 106.17L46.9973 108.208Z" fill="#040000"/>
<path d="M111.26 53.3516V81.8419V84.6419V110.008H120.285V84.6419V81.8419V53.3516H111.26Z" fill="#040000"/>
<path d="M131.315 72.3751V81.1792H140.34V72.2246C140.34 61.8168 131.914 53.3728 121.508 53.3516H121.318V62.3765C126.84 62.3765 131.317 66.8522 131.317 72.3751H131.315Z" fill="#040000"/>
<path d="M131.314 82.1807V90.9831C131.314 96.506 126.837 100.983 121.314 100.983H121.301V110.008H121.314C131.821 110.008 140.339 101.491 140.339 90.9831V82.1807H131.314Z" fill="#040000"/>
</svg>
