<svg width="55" height="36" viewBox="0 0 55 36" fill="none" xmlns="http://www.w3.org/2000/svg">
<path d="M33.8194 8.40787L17.0083 0.179688L0.186035 8.40787V24.8859H22.6453V35.8822H54.8555V30.3895H50.6749V19.415H54.8555V13.9006H33.8305V8.41872L33.8194 8.40787ZM6.95717 22.4001L5.03368 19.415L4.1998 20.1965V22.4001H2.80999V13.9006H4.1998V18.7419L6.70145 16.2561H8.40257L5.98987 18.514L8.63606 22.4001H6.94605H6.95717ZM15.2293 22.4001H13.8395V18.5357C13.8173 17.5696 13.4281 17.1571 12.6053 17.1571C11.6825 17.1571 11.0821 17.8735 11.0821 18.7745V22.4001H9.69231V13.9006H11.0821V17.0702H11.1044C11.449 16.5166 12.1606 16.0933 12.9945 16.0933C14.3621 16.0933 15.2182 16.8097 15.2182 18.1883V22.411L15.2293 22.4001ZM33.8305 24.8968H37.3773C40.0123 24.8968 41.1464 26.7639 41.1464 29.076C41.1464 31.3881 40.0123 33.2552 37.3773 33.2552H33.8305V24.9076V24.8968ZM29.7834 33.2444H28.1156L25.2693 24.8968H26.8258L28.9717 31.5076H28.9939L31.1843 24.8968H32.7075L29.7834 33.2444Z" fill="#E0E0E0"/>
<path d="M39.6801 29.1805C39.6801 27.5088 39.1797 26.1953 36.8337 26.1953H35.355V32.1548H36.8337C39.1797 32.1548 39.6801 30.8413 39.6801 29.1696V29.1805Z" fill="#E0E0E0"/>
</svg>
