<svg preserveAspectRatio="none" width="100%" height="100%" overflow="visible" style="display: block;" viewBox="0 0 88 43" fill="none" xmlns="http://www.w3.org/2000/svg">
<g id="&#235;&#176;&#148;&#235;&#128;&#144; &#235;&#161;&#156;&#234;&#179;&#160;" clip-path="url(#clip0_1751_32187)">
<path id="Vector" d="M0 0V21.6232V23.7486V43H6.88701V23.7486V21.6232V0H0Z" fill="var(--fill-0, #040000)"/>
<path id="Vector_2" d="M39.0259 13.7958H30.9532H30.1601H22.9567V20.6454H30.1601H30.9532H39.0259V13.7958Z" fill="var(--fill-0, #040000)"/>
<path id="Vector_3" d="M39.0259 24.0702H30.9532H30.1601H22.9567V30.9198H30.1601H30.9532H39.0259V24.0702Z" fill="var(--fill-0, #040000)"/>
<path id="Vector_4" d="M49.4784 26.6815L49.2133 24.2291L46.5932 0.0128873H39.6667L42.3657 24.9616L42.6313 27.4139L44.3218 43H51.2487L49.4784 26.6815Z" fill="var(--fill-0, #040000)"/>
<path id="Vector_5" d="M56.6381 0.0128873L54.4385 20.3447L54.1734 22.7971L51.983 43H58.9094L61.0205 23.53L61.2861 21.0777L63.565 0.0128873H56.6381Z" fill="var(--fill-0, #040000)"/>
<path id="Vector_6" d="M9.66536 0H7.65206V6.84959H9.55468C12.096 6.84959 14.1563 8.89866 14.1563 11.4262H21.0433C21.0433 11.3881 21.0433 11.3499 21.0433 11.3118C21.0411 5.06416 15.9477 0 9.66536 0Z" fill="var(--fill-0, #040000)"/>
<path id="Vector_7" d="M14.1563 12.1876C14.1563 14.7151 12.096 16.7642 9.55468 16.7642H7.65638V23.6138H9.55468C15.8996 23.6138 21.0433 18.4981 21.0433 12.1876H14.1563Z" fill="var(--fill-0, #040000)"/>
<path id="Vector_8" d="M16.7705 41.6334L17.4913 43H25.2691L22.8682 38.4503L22.0529 36.9049L15.4412 24.3757H7.66339L15.9547 40.088L16.7705 41.6334Z" fill="var(--fill-0, #040000)"/>
<g id="Group">
<path id="Vector_9" d="M65.8089 0V21.6232V23.7486V43H72.6959V23.7486V21.6232V0H65.8089Z" fill="var(--fill-0, #040000)"/>
<g id="Group_2">
<path id="Vector_10" d="M81.113 14.438V21.1196H88V14.3231C88 6.42431 81.5703 0.0166461 73.6283 0H73.4831V6.84905C77.697 6.84905 81.113 10.2465 81.113 14.4375V14.438Z" fill="var(--fill-0, #040000)"/>
<path id="Vector_11" d="M81.113 21.8804V28.5609C81.113 32.7525 77.6965 36.1504 73.482 36.1504H73.4723V43H73.482C81.5001 43 88 36.5354 88 28.5609V21.8804H81.113Z" fill="var(--fill-0, #040000)"/>
</g>
</g>
</g>
<defs>
<clipPath id="clip0_1751_32187">
<rect width="88" height="43" fill="white"/>
</clipPath>
</defs>
</svg>
