<svg width="141" height="69" viewBox="0 0 141 69" fill="none" xmlns="http://www.w3.org/2000/svg">
<g clip-path="url(#clip0_1228_106384)">
<path d="M0.855469 0V34.6978V38.1082V69H11.8121V38.1082V34.6978V0H0.855469Z" fill="#040000"/>
<path d="M62.942 22.1406H50.0992H48.8374H37.3774V33.1318H48.8374H50.0992H62.942V22.1406Z" fill="#040000"/>
<path d="M62.942 38.625H50.0992H48.8374H37.3774V49.6162H48.8374H50.0992H62.942V38.625Z" fill="#040000"/>
<path d="M79.5709 42.8172L79.1492 38.8821L74.9807 0.0234375H63.9614L68.2553 40.0574L68.6779 43.9925L71.3672 69.0028H82.3874L79.5709 42.8172Z" fill="#040000"/>
<path d="M90.9614 0.0234375L87.4621 32.6489L87.0404 36.5841L83.5557 69.0028H94.575L97.9334 37.7602L98.356 33.8251L101.982 0.0234375H90.9614Z" fill="#040000"/>
<path d="M16.2323 0H13.0293V10.9912H16.0562C20.0992 10.9912 23.3769 14.2792 23.3769 18.335H34.3335C34.3335 18.2739 34.3335 18.2127 34.3335 18.1515C34.3301 8.12621 26.2269 0 16.2323 0Z" fill="#040000"/>
<path d="M23.3769 19.5547C23.3769 23.6105 20.0992 26.8985 16.0562 26.8985H13.0361V37.8897H16.0562C26.1504 37.8897 34.3335 29.6808 34.3335 19.5547H23.3769Z" fill="#040000"/>
<path d="M27.5359 66.8097L28.6826 69.0026H41.0565L37.2368 61.7019L35.9398 59.222L25.4212 39.1172H13.0474L26.2381 64.3299L27.5359 66.8097Z" fill="#040000"/>
<path d="M105.551 0V34.6978V38.1082V69H116.508V38.1082V34.6978V0H105.551Z" fill="#040000"/>
<path d="M129.899 23.168V33.8895H140.855V22.9836C140.855 10.3088 130.626 0.0267111 117.991 0H117.76V10.9903C124.464 10.9903 129.899 16.442 129.899 23.1672V23.168Z" fill="#040000"/>
<path d="M129.899 35.1094V45.8292C129.899 52.5552 124.463 58.0077 117.759 58.0077H117.743V68.9989H117.759C130.515 68.9989 140.855 58.6255 140.855 45.8292V35.1094H129.899Z" fill="#040000"/>
</g>
<defs>
<clipPath id="clip0_1228_106384">
<rect width="140" height="69" fill="white" transform="translate(0.855469)"/>
</clipPath>
</defs>
</svg>
