<svg preserveAspectRatio="none" width="100%" height="100%" overflow="visible" style="display: block;" viewBox="0 0 280 138" fill="none" xmlns="http://www.w3.org/2000/svg">
<g id="&#235;&#176;&#148;&#235;&#128;&#144; &#235;&#161;&#156;&#234;&#179;&#160;" clip-path="url(#clip0_1727_32310)">
<path id="Vector" d="M0 0V69.3955V76.2163V138H21.9132V76.2163V69.3955V0H0Z" fill="var(--fill-0, #999999)"/>
<path id="Vector_2" d="M124.173 44.2754H98.4874H95.9638H73.0439V66.2578H95.9638H98.4874H124.173V44.2754Z" fill="var(--fill-0, #999999)"/>
<path id="Vector_3" d="M124.173 77.248H98.4874H95.9638H73.0439V99.2304H95.9638H98.4874H124.173V77.248Z" fill="var(--fill-0, #999999)"/>
<path id="Vector_4" d="M157.431 85.6286L156.588 77.7583L148.251 0.0410156H126.212L134.8 80.1089L135.645 87.9792L141.024 138H163.064L157.431 85.6286Z" fill="var(--fill-0, #999999)"/>
<path id="Vector_5" d="M180.212 0.0410156L173.213 65.292L172.37 73.1623L165.4 138H187.439L194.156 75.5146L195.001 67.6443L202.252 0.0410156H180.212Z" fill="var(--fill-0, #999999)"/>
<path id="Vector_6" d="M30.7534 0H24.3475V21.9824H30.4012C38.4873 21.9824 45.0427 28.5585 45.0427 36.6701H66.9559C66.9559 36.5477 66.9559 36.4254 66.9559 36.303C66.9491 16.2524 50.7426 0 30.7534 0Z" fill="var(--fill-0, #999999)"/>
<path id="Vector_7" d="M45.0428 39.1133C45.0428 47.2248 38.4874 53.801 30.4014 53.801H24.3613V75.7833H30.4014C50.5899 75.7833 66.9561 59.3655 66.9561 39.1133H45.0428Z" fill="var(--fill-0, #999999)"/>
<path id="Vector_8" d="M53.3604 133.614L55.6538 137.999H80.4015L72.7621 123.398L70.1681 118.438L49.131 78.2285H24.3833L50.7647 128.654L53.3604 133.614Z" fill="var(--fill-0, #999999)"/>
<g id="Group">
<path id="Vector_9" d="M209.392 0V69.3955V76.2163V138H231.305V76.2163V69.3955V0H209.392Z" fill="var(--fill-0, #999999)"/>
<g id="Group_2">
<path id="Vector_10" d="M258.087 46.336V67.779H280V45.9673C280 20.6175 259.542 0.0534222 234.272 0H233.81V21.9807C247.218 21.9807 258.087 32.884 258.087 46.3343V46.336Z" fill="var(--fill-0, #999999)"/>
<path id="Vector_11" d="M258.087 70.2207V91.6603C258.087 105.112 247.216 116.017 233.806 116.017H233.775V138H233.806C259.318 138 280 117.253 280 91.6603V70.2207H258.087Z" fill="var(--fill-0, #999999)"/>
</g>
</g>
</g>
<defs>
<clipPath id="clip0_1727_32310">
<rect width="280" height="138" fill="white"/>
</clipPath>
</defs>
</svg>
