<svg preserveAspectRatio="none" width="100%" height="100%" overflow="visible" style="display: block;" viewBox="0 0 50 25" fill="none" xmlns="http://www.w3.org/2000/svg">
<g id="&#235;&#176;&#148;&#235;&#128;&#144; &#235;&#161;&#156;&#234;&#179;&#160;" clip-path="url(#clip0_1752_31934)">
<path id="Vector" d="M0 0V12.5716V13.8073V25H3.91308V13.8073V12.5716V0H0Z" fill="var(--fill-0, #040000)"/>
<path id="Vector_2" d="M22.1738 8.02083H17.5871H17.1364H13.0436V12.0031H17.1364H17.5871H22.1738V8.02083Z" fill="var(--fill-0, #040000)"/>
<path id="Vector_3" d="M22.1738 13.9943H17.5871H17.1364H13.0436V17.9766H17.1364H17.5871H22.1738V13.9943Z" fill="var(--fill-0, #040000)"/>
<path id="Vector_4" d="M28.1127 15.5125L27.9621 14.0867L26.4734 0.0074926H22.5379L24.0714 14.5125L24.2224 15.9383L25.1828 25H29.1186L28.1127 15.5125Z" fill="var(--fill-0, #040000)"/>
<path id="Vector_5" d="M32.1807 0.0074926L30.931 11.8283L30.7803 13.2541L29.5358 25H33.4713L34.6707 13.6802L34.8216 12.2545L36.1165 0.0074926H32.1807Z" fill="var(--fill-0, #040000)"/>
<path id="Vector_6" d="M5.49168 0H4.34776V3.98232H5.42879C6.87273 3.98232 8.04334 5.17364 8.04334 6.64313H11.9564C11.9564 6.62096 11.9564 6.5988 11.9564 6.57663C11.9552 2.94428 9.06118 0 5.49168 0Z" fill="var(--fill-0, #040000)"/>
<path id="Vector_7" d="M8.04334 7.08582C8.04334 8.5553 6.87273 9.74663 5.42879 9.74663H4.35021V13.7289H5.42879C9.03388 13.7289 11.9564 10.7547 11.9564 7.08582H8.04334Z" fill="var(--fill-0, #040000)"/>
<path id="Vector_8" d="M9.52869 24.2055L9.93822 25H14.3575L12.9933 22.3548L12.5301 21.4563L8.77344 14.1719H4.3542L9.06517 23.307L9.52869 24.2055Z" fill="var(--fill-0, #040000)"/>
<g id="Group">
<path id="Vector_9" d="M37.3914 0V12.5716V13.8073V25H41.3045V13.8073V12.5716V0H37.3914Z" fill="var(--fill-0, #040000)"/>
<g id="Group_2">
<path id="Vector_10" d="M46.0869 8.39421V12.2788H50V8.3274C50 3.73506 46.3468 0.00967794 41.8343 0H41.7517V3.98201C44.146 3.98201 46.0869 5.95724 46.0869 8.3939V8.39421Z" fill="var(--fill-0, #040000)"/>
<path id="Vector_11" d="M46.0869 12.7212V16.6052C46.0869 19.0421 44.1457 21.0177 41.7511 21.0177H41.7456V25H41.7511C46.3069 25 50 21.2415 50 16.6052V12.7212H46.0869Z" fill="var(--fill-0, #040000)"/>
</g>
</g>
</g>
<defs>
<clipPath id="clip0_1752_31934">
<rect width="50" height="25" fill="white"/>
</clipPath>
</defs>
</svg>
